<svg xmlns="http://www.w3.org/2000/svg" xmlns:xlink="http://www.w3.org/1999/xlink" width="940" zoomAndPan="magnify" viewBox="0 0 705 591.000005" height="788" preserveAspectRatio="xMidYMid meet" version="1.0"><defs><clipPath id="8d1734250e"><path d="M 288 164 L 413 164 L 413 425.929688 L 288 425.929688 Z M 288 164 " clip-rule="nonzero"/></clipPath></defs><path fill="#ed1c24" d="M 393.550781 402.777344 L 393.550781 372.28125 L 307.855469 372.28125 L 307.855469 402.777344 L 393.550781 402.777344 " fill-opacity="1" fill-rule="nonzero"/><path fill="#f14624" d="M 393.550781 364.652344 L 393.550781 334.160156 L 307.855469 334.160156 L 307.855469 364.652344 L 393.550781 364.652344 " fill-opacity="1" fill-rule="nonzero"/><path fill="#f9a72b" d="M 393.550781 326.53125 L 393.550781 296.039062 L 307.855469 296.039062 L 307.855469 326.53125 L 393.550781 326.53125 " fill-opacity="1" fill-rule="nonzero"/><g clip-path="url(#8d1734250e)"><path fill="#393536" d="M 323.125 416.296875 L 298.601562 416.296875 L 298.601562 200.476562 L 318.390625 200.476562 C 321.179688 200.476562 323.445312 198.207031 323.445312 195.414062 L 323.445312 174.257812 L 377.964844 174.257812 L 377.964844 195.414062 C 377.964844 198.207031 380.226562 200.476562 383.019531 200.476562 L 402.808594 200.476562 L 402.808594 416.296875 Z M 293.542969 426.414062 L 407.867188 426.414062 C 410.65625 426.414062 412.921875 424.152344 412.921875 421.359375 L 412.921875 195.414062 C 412.921875 192.617188 410.65625 190.355469 407.867188 190.355469 L 388.074219 190.355469 L 388.074219 169.195312 C 388.074219 166.398438 385.8125 164.136719 383.019531 164.136719 L 318.390625 164.136719 C 315.597656 164.136719 313.335938 166.398438 313.335938 169.195312 L 313.335938 190.355469 L 293.542969 190.355469 C 290.753906 190.355469 288.488281 192.617188 288.488281 195.414062 L 288.488281 421.359375 C 288.488281 424.152344 290.753906 426.414062 293.542969 426.414062 " fill-opacity="1" fill-rule="nonzero"/></g></svg>