<svg xmlns="http://www.w3.org/2000/svg" xmlns:xlink="http://www.w3.org/1999/xlink" width="500" zoomAndPan="magnify" viewBox="0 0 375 374.999991" height="500" preserveAspectRatio="xMidYMid meet" version="1.0"><defs><filter x="0%" y="0%" width="100%" height="100%" id="8ff54f9053"><feColorMatrix values="0 0 0 0 1 0 0 0 0 1 0 0 0 0 1 0 0 0 1 0" color-interpolation-filters="sRGB"/></filter><g/><radialGradient gradientTransform="matrix(1, 0, 0, 1, 0.0000045, 0)" gradientUnits="userSpaceOnUse" r="265.165051" cx="187.499996" id="a0c4000e42" cy="187.499996" fx="187.499996" fy="187.499996"><stop stop-opacity="1" stop-color="rgb(100%, 96.798706%, 67.793274%)" offset="0"/><stop stop-opacity="1" stop-color="rgb(100%, 96.549988%, 67.778015%)" offset="0.0078125"/><stop stop-opacity="1" stop-color="rgb(100%, 96.250916%, 67.76123%)" offset="0.0195312"/><stop stop-opacity="1" stop-color="rgb(100%, 95.953369%, 67.74292%)" offset="0.03125"/><stop stop-opacity="1" stop-color="rgb(100%, 95.654297%, 67.726135%)" offset="0.0429688"/><stop stop-opacity="1" stop-color="rgb(100%, 95.355225%, 67.707825%)" offset="0.0546875"/><stop stop-opacity="1" stop-color="rgb(100%, 95.056152%, 67.69104%)" offset="0.0664062"/><stop stop-opacity="1" stop-color="rgb(100%, 94.75708%, 67.672729%)" offset="0.078125"/><stop stop-opacity="1" stop-color="rgb(100%, 94.458008%, 67.655945%)" offset="0.0898438"/><stop stop-opacity="1" stop-color="rgb(100%, 94.160461%, 67.637634%)" offset="0.101562"/><stop stop-opacity="1" stop-color="rgb(100%, 93.861389%, 67.62085%)" offset="0.113281"/><stop stop-opacity="1" stop-color="rgb(100%, 93.562317%, 67.602539%)" offset="0.125"/><stop stop-opacity="1" stop-color="rgb(100%, 93.263245%, 67.585754%)" offset="0.136719"/><stop stop-opacity="1" stop-color="rgb(100%, 92.964172%, 67.567444%)" offset="0.148438"/><stop stop-opacity="1" stop-color="rgb(100%, 92.6651%, 67.549133%)" offset="0.160156"/><stop stop-opacity="1" stop-color="rgb(100%, 92.367554%, 67.532349%)" offset="0.171875"/><stop stop-opacity="1" stop-color="rgb(100%, 92.068481%, 67.514038%)" offset="0.183594"/><stop stop-opacity="1" stop-color="rgb(100%, 91.769409%, 67.497253%)" offset="0.195312"/><stop stop-opacity="1" stop-color="rgb(100%, 91.470337%, 67.478943%)" offset="0.207031"/><stop stop-opacity="1" stop-color="rgb(100%, 91.171265%, 67.462158%)" offset="0.21875"/><stop stop-opacity="1" stop-color="rgb(100%, 90.872192%, 67.443848%)" offset="0.230469"/><stop stop-opacity="1" stop-color="rgb(100%, 90.574646%, 67.427063%)" offset="0.242188"/><stop stop-opacity="1" stop-color="rgb(100%, 90.324402%, 67.411804%)" offset="0.253906"/><stop stop-opacity="1" stop-color="rgb(100%, 90.126038%, 67.401123%)" offset="0.261719"/><stop stop-opacity="1" stop-color="rgb(100%, 89.926147%, 67.388916%)" offset="0.269531"/><stop stop-opacity="1" stop-color="rgb(100%, 89.726257%, 67.376709%)" offset="0.277344"/><stop stop-opacity="1" stop-color="rgb(100%, 89.527893%, 67.366028%)" offset="0.285156"/><stop stop-opacity="1" stop-color="rgb(100%, 89.328003%, 67.353821%)" offset="0.292969"/><stop stop-opacity="1" stop-color="rgb(100%, 89.129639%, 67.341614%)" offset="0.300781"/><stop stop-opacity="1" stop-color="rgb(100%, 88.929749%, 67.330933%)" offset="0.308594"/><stop stop-opacity="1" stop-color="rgb(100%, 88.731384%, 67.318726%)" offset="0.316406"/><stop stop-opacity="1" stop-color="rgb(100%, 88.531494%, 67.306519%)" offset="0.324219"/><stop stop-opacity="1" stop-color="rgb(100%, 88.33313%, 67.295837%)" offset="0.332031"/><stop stop-opacity="1" stop-color="rgb(100%, 88.13324%, 67.28363%)" offset="0.339844"/><stop stop-opacity="1" stop-color="rgb(100%, 87.93335%, 67.271423%)" offset="0.347656"/><stop stop-opacity="1" stop-color="rgb(100%, 87.734985%, 67.259216%)" offset="0.355469"/><stop stop-opacity="1" stop-color="rgb(100%, 87.535095%, 67.248535%)" offset="0.363281"/><stop stop-opacity="1" stop-color="rgb(100%, 87.336731%, 67.236328%)" offset="0.371094"/><stop stop-opacity="1" stop-color="rgb(100%, 87.136841%, 67.224121%)" offset="0.378906"/><stop stop-opacity="1" stop-color="rgb(100%, 86.938477%, 67.21344%)" offset="0.386719"/><stop stop-opacity="1" stop-color="rgb(100%, 86.738586%, 67.201233%)" offset="0.394531"/><stop stop-opacity="1" stop-color="rgb(100%, 86.538696%, 67.189026%)" offset="0.402344"/><stop stop-opacity="1" stop-color="rgb(100%, 86.340332%, 67.178345%)" offset="0.410156"/><stop stop-opacity="1" stop-color="rgb(100%, 86.140442%, 67.166138%)" offset="0.417969"/><stop stop-opacity="1" stop-color="rgb(100%, 85.942078%, 67.153931%)" offset="0.425781"/><stop stop-opacity="1" stop-color="rgb(100%, 85.742188%, 67.14325%)" offset="0.433594"/><stop stop-opacity="1" stop-color="rgb(100%, 85.543823%, 67.131042%)" offset="0.441406"/><stop stop-opacity="1" stop-color="rgb(100%, 85.343933%, 67.118835%)" offset="0.449219"/><stop stop-opacity="1" stop-color="rgb(100%, 85.145569%, 67.108154%)" offset="0.457031"/><stop stop-opacity="1" stop-color="rgb(100%, 84.945679%, 67.095947%)" offset="0.464844"/><stop stop-opacity="1" stop-color="rgb(100%, 84.745789%, 67.08374%)" offset="0.472656"/><stop stop-opacity="1" stop-color="rgb(100%, 84.547424%, 67.073059%)" offset="0.480469"/><stop stop-opacity="1" stop-color="rgb(100%, 84.347534%, 67.060852%)" offset="0.488281"/><stop stop-opacity="1" stop-color="rgb(100%, 84.14917%, 67.048645%)" offset="0.496094"/><stop stop-opacity="1" stop-color="rgb(100%, 83.900452%, 67.034912%)" offset="0.503906"/><stop stop-opacity="1" stop-color="rgb(100%, 83.601379%, 67.016602%)" offset="0.515625"/><stop stop-opacity="1" stop-color="rgb(100%, 83.302307%, 66.999817%)" offset="0.527344"/><stop stop-opacity="1" stop-color="rgb(100%, 83.003235%, 66.981506%)" offset="0.539062"/><stop stop-opacity="1" stop-color="rgb(100%, 82.704163%, 66.963196%)" offset="0.550781"/><stop stop-opacity="1" stop-color="rgb(100%, 82.406616%, 66.946411%)" offset="0.5625"/><stop stop-opacity="1" stop-color="rgb(100%, 82.107544%, 66.928101%)" offset="0.574219"/><stop stop-opacity="1" stop-color="rgb(100%, 81.808472%, 66.911316%)" offset="0.585938"/><stop stop-opacity="1" stop-color="rgb(100%, 81.509399%, 66.893005%)" offset="0.597656"/><stop stop-opacity="1" stop-color="rgb(100%, 81.210327%, 66.876221%)" offset="0.609375"/><stop stop-opacity="1" stop-color="rgb(100%, 80.911255%, 66.85791%)" offset="0.621094"/><stop stop-opacity="1" stop-color="rgb(100%, 80.662537%, 66.844177%)" offset="0.632812"/><stop stop-opacity="1" stop-color="rgb(100%, 80.462646%, 66.83197%)" offset="0.640625"/><stop stop-opacity="1" stop-color="rgb(100%, 80.264282%, 66.819763%)" offset="0.648438"/><stop stop-opacity="1" stop-color="rgb(100%, 80.064392%, 66.809082%)" offset="0.65625"/><stop stop-opacity="1" stop-color="rgb(100%, 79.866028%, 66.796875%)" offset="0.664062"/><stop stop-opacity="1" stop-color="rgb(100%, 79.666138%, 66.784668%)" offset="0.671875"/><stop stop-opacity="1" stop-color="rgb(100%, 79.467773%, 66.773987%)" offset="0.679688"/><stop stop-opacity="1" stop-color="rgb(100%, 79.267883%, 66.76178%)" offset="0.6875"/><stop stop-opacity="1" stop-color="rgb(100%, 79.067993%, 66.749573%)" offset="0.695312"/><stop stop-opacity="1" stop-color="rgb(100%, 78.869629%, 66.738892%)" offset="0.703125"/><stop stop-opacity="1" stop-color="rgb(100%, 78.669739%, 66.726685%)" offset="0.710938"/><stop stop-opacity="1" stop-color="rgb(100%, 78.471375%, 66.714478%)" offset="0.71875"/><stop stop-opacity="1" stop-color="rgb(100%, 78.271484%, 66.703796%)" offset="0.726562"/><stop stop-opacity="1" stop-color="rgb(100%, 78.07312%, 66.691589%)" offset="0.734375"/><stop stop-opacity="1" stop-color="rgb(100%, 77.87323%, 66.679382%)" offset="0.742188"/><stop stop-opacity="1" stop-color="rgb(100%, 77.674866%, 66.668701%)" offset="0.75"/><stop stop-opacity="1" stop-color="rgb(100%, 77.426147%, 66.653442%)" offset="0.757812"/><stop stop-opacity="1" stop-color="rgb(100%, 77.127075%, 66.635132%)" offset="0.769531"/><stop stop-opacity="1" stop-color="rgb(100%, 76.828003%, 66.618347%)" offset="0.78125"/><stop stop-opacity="1" stop-color="rgb(100%, 76.528931%, 66.600037%)" offset="0.792969"/><stop stop-opacity="1" stop-color="rgb(100%, 76.229858%, 66.583252%)" offset="0.804688"/><stop stop-opacity="1" stop-color="rgb(100%, 75.98114%, 66.567993%)" offset="0.816406"/><stop stop-opacity="1" stop-color="rgb(100%, 75.78125%, 66.557312%)" offset="0.824219"/><stop stop-opacity="1" stop-color="rgb(100%, 75.582886%, 66.545105%)" offset="0.832031"/><stop stop-opacity="1" stop-color="rgb(100%, 75.382996%, 66.532898%)" offset="0.839844"/><stop stop-opacity="1" stop-color="rgb(100%, 75.184631%, 66.522217%)" offset="0.847656"/><stop stop-opacity="1" stop-color="rgb(100%, 74.984741%, 66.51001%)" offset="0.855469"/><stop stop-opacity="1" stop-color="rgb(100%, 74.784851%, 66.497803%)" offset="0.863281"/><stop stop-opacity="1" stop-color="rgb(100%, 74.586487%, 66.487122%)" offset="0.871094"/><stop stop-opacity="1" stop-color="rgb(100%, 74.337769%, 66.471863%)" offset="0.878906"/><stop stop-opacity="1" stop-color="rgb(100%, 74.038696%, 66.453552%)" offset="0.890625"/><stop stop-opacity="1" stop-color="rgb(100%, 73.739624%, 66.436768%)" offset="0.902344"/><stop stop-opacity="1" stop-color="rgb(100%, 73.490906%, 66.421509%)" offset="0.914062"/><stop stop-opacity="1" stop-color="rgb(100%, 73.291016%, 66.410828%)" offset="0.921875"/><stop stop-opacity="1" stop-color="rgb(100%, 73.092651%, 66.398621%)" offset="0.929688"/><stop stop-opacity="1" stop-color="rgb(100%, 72.892761%, 66.386414%)" offset="0.9375"/><stop stop-opacity="1" stop-color="rgb(100%, 72.644043%, 66.372681%)" offset="0.945312"/><stop stop-opacity="1" stop-color="rgb(100%, 72.395325%, 66.357422%)" offset="0.957031"/><stop stop-opacity="1" stop-color="rgb(100%, 72.195435%, 66.345215%)" offset="0.964844"/><stop stop-opacity="1" stop-color="rgb(100%, 71.946716%, 66.331482%)" offset="0.972656"/><stop stop-opacity="1" stop-color="rgb(100%, 71.697998%, 66.316223%)" offset="0.984375"/><stop stop-opacity="1" stop-color="rgb(100%, 71.498108%, 66.305542%)" offset="0.992188"/><stop stop-opacity="1" stop-color="rgb(100%, 71.398926%, 66.299438%)" offset="1"/></radialGradient><clipPath id="f903f43f77"><path d="M 120 39 L 332 39 L 332 337.582031 L 120 337.582031 Z M 120 39 " clip-rule="nonzero"/></clipPath><mask id="13c9d475ce"><g filter="url(#8ff54f9053)"><rect x="-37.5" width="450" fill="#000000" y="-37.499999" height="449.999989" fill-opacity="0.4"/></g></mask><clipPath id="19eef2f7bf"><path d="M 0 0.359375 L 211 0.359375 L 211 298.582031 L 0 298.582031 Z M 0 0.359375 " clip-rule="nonzero"/></clipPath><clipPath id="dd8b228bfa"><rect x="0" width="212" y="0" height="299"/></clipPath><clipPath id="eab9200dd9"><path d="M 36 20.332031 L 339 20.332031 L 339 337.582031 L 36 337.582031 Z M 36 20.332031 " clip-rule="nonzero"/></clipPath><mask id="e329125988"><g filter="url(#8ff54f9053)"><rect x="-37.5" width="450" fill="#000000" y="-37.499999" height="449.999989" fill-opacity="0.38"/></g></mask><clipPath id="74adf119c7"><path d="M 19.664062 20 L 340.699219 20 L 340.699219 126 L 19.664062 126 Z M 19.664062 20 " clip-rule="nonzero"/></clipPath><clipPath id="bfd23ea1b1"><path d="M 40.664062 20 L 319.699219 20 C 331.296875 20 340.699219 29.402344 340.699219 41 L 340.699219 105 C 340.699219 116.597656 331.296875 126 319.699219 126 L 40.664062 126 C 29.066406 126 19.664062 116.597656 19.664062 105 L 19.664062 41 C 19.664062 29.402344 29.066406 20 40.664062 20 Z M 40.664062 20 " clip-rule="nonzero"/></clipPath><clipPath id="485b93deab"><path d="M 19.664062 20 L 340.664062 20 L 340.664062 125.75 L 19.664062 125.75 Z M 19.664062 20 " clip-rule="nonzero"/></clipPath><clipPath id="865ca92396"><path d="M 40.664062 20 L 319.664062 20 C 331.261719 20 340.664062 29.378906 340.664062 40.949219 L 340.664062 104.796875 C 340.664062 116.371094 331.261719 125.75 319.664062 125.75 L 40.664062 125.75 C 29.066406 125.75 19.664062 116.371094 19.664062 104.796875 L 19.664062 40.949219 C 19.664062 29.378906 29.066406 20 40.664062 20 Z M 40.664062 20 " clip-rule="nonzero"/></clipPath><clipPath id="ccd2e6a856"><rect x="0" width="360" y="0" height="126"/></clipPath></defs><rect x="-37.5" width="450" fill="#ffffff" y="-37.499999" height="449.999989" fill-opacity="1"/><rect x="-37.5" fill="url(#a0c4000e42)" width="450" y="-37.499999" height="449.999989"/><path fill="#3b210d" d="M 312.285156 336.859375 C 312.160156 336.859375 312.03125 336.824219 311.921875 336.761719 L 93.253906 209.167969 L 83.628906 203.488281 C 83.539062 203.4375 83.460938 203.34375 83.378906 203.203125 L 37.5625 66.75 C 36.449219 63.425781 37.484375 59.851562 40.199219 57.636719 C 41.691406 56.417969 43.550781 55.75 45.441406 55.75 C 46.90625 55.75 48.363281 56.148438 49.652344 56.898438 L 78.789062 73.910156 L 78.128906 67.621094 C 78.101562 67.347656 78.226562 67.085938 78.457031 66.9375 C 78.570312 66.863281 78.707031 66.820312 78.851562 66.820312 C 78.976562 66.820312 79.101562 66.855469 79.210938 66.917969 L 87.882812 71.980469 L 87.378906 58.300781 C 87.371094 58.039062 87.503906 57.789062 87.730469 57.65625 C 87.84375 57.585938 87.972656 57.550781 88.101562 57.550781 C 88.226562 57.550781 88.351562 57.585938 88.464844 57.648438 L 99.066406 63.835938 L 99.578125 51.90625 C 99.585938 51.652344 99.730469 51.425781 99.949219 51.304688 C 100.054688 51.246094 100.175781 51.21875 100.296875 51.21875 C 100.425781 51.21875 100.550781 51.25 100.664062 51.3125 L 104.441406 53.519531 L 108.945312 21.738281 C 108.980469 21.5 109.128906 21.292969 109.347656 21.1875 C 109.445312 21.140625 109.550781 21.117188 109.660156 21.117188 C 109.789062 21.117188 109.917969 21.152344 110.027344 21.214844 L 204.105469 76.136719 C 204.78125 76.53125 205.550781 76.738281 206.335938 76.738281 C 206.8125 76.738281 207.285156 76.664062 207.742188 76.511719 C 208.953125 76.105469 209.925781 75.199219 210.421875 74.023438 L 214.617188 63.992188 C 215.234375 62.511719 216.460938 61.375 217.976562 60.867188 C 218.546875 60.675781 219.136719 60.582031 219.738281 60.582031 C 220.722656 60.582031 221.6875 60.84375 222.535156 61.339844 L 334.332031 126.597656 C 337 128.160156 338.523438 131.152344 338.21875 134.226562 L 313.003906 336.226562 L 312.910156 336.503906 C 312.820312 336.589844 312.757812 336.65625 312.714844 336.710938 L 312.585938 336.789062 C 312.441406 336.839844 312.355469 336.859375 312.285156 336.859375 Z M 312.285156 336.859375 " fill-opacity="1" fill-rule="nonzero"/><path fill="#fcc0c5" d="M 337.5 134.152344 L 312.285156 336.136719 L 321.023438 162.492188 L 115.109375 42.335938 L 112.914062 59.300781 L 105.003906 54.683594 L 109.664062 21.839844 L 203.742188 76.761719 C 206.429688 78.328125 209.882812 77.171875 211.085938 74.300781 L 215.285156 64.269531 C 216.410156 61.574219 219.648438 60.488281 222.171875 61.960938 L 333.964844 127.226562 C 336.398438 128.644531 337.777344 131.351562 337.5 134.152344 Z M 260.097656 204.992188 L 312.285156 336.136719 L 93.625 208.488281 L 93.621094 208.484375 L 93.617188 208.484375 L 93.613281 208.480469 L 83.992188 202.863281 L 38.246094 66.519531 C 36.011719 59.859375 43.222656 53.984375 49.289062 57.523438 L 79.65625 75.25 L 88.921875 80.664062 L 98.824219 86.441406 L 100.371094 87.347656 L 108.664062 92.1875 L 121.816406 99.863281 C 127.683594 103.289062 132.019531 108.839844 133.925781 115.367188 L 135.894531 122.105469 C 138.242188 130.140625 143.578125 136.96875 150.804688 141.191406 Z M 109.960938 170.84375 L 101.753906 145.621094 L 99.277344 138.011719 L 96.691406 136.5 L 93.652344 134.726562 L 90.847656 133.089844 L 85.378906 129.898438 L 77.273438 125.164062 L 87.960938 157.996094 L 88.347656 158.222656 L 90.171875 159.289062 L 91.847656 160.265625 L 95.585938 162.449219 L 99.296875 164.617188 Z M 109.960938 170.84375 " fill-opacity="1" fill-rule="nonzero"/><path fill="#f4ece8" d="M 321.023438 162.492188 L 312.285156 336.136719 L 260.097656 204.992188 L 150.804688 141.191406 C 143.578125 136.96875 138.242188 130.140625 135.894531 122.105469 L 133.925781 115.367188 C 132.019531 108.839844 127.683594 103.289062 121.816406 99.863281 L 108.664062 92.1875 L 100.371094 87.347656 L 98.824219 86.441406 L 88.921875 80.664062 L 79.65625 75.25 L 78.847656 67.542969 L 88.652344 73.265625 L 88.101562 58.273438 L 99.738281 65.066406 L 100.296875 51.9375 L 105.003906 54.683594 L 112.914062 59.300781 L 115.109375 42.335938 Z M 93.621094 208.484375 L 93.617188 208.484375 L 93.613281 208.480469 L 93.617188 208.539062 L 312.285156 336.136719 L 93.625 208.488281 Z M 99.296875 164.617188 L 109.960938 170.84375 L 101.753906 145.621094 L 99.277344 138.011719 L 96.691406 136.5 L 93.652344 134.726562 L 90.847656 133.089844 L 85.378906 129.898438 L 77.273438 125.164062 L 87.960938 157.996094 L 88.347656 158.222656 L 90.171875 159.289062 L 91.847656 160.265625 L 95.585938 162.449219 Z M 99.296875 164.617188 " fill-opacity="1" fill-rule="nonzero"/><g clip-path="url(#f903f43f77)"><g mask="url(#13c9d475ce)"><g transform="matrix(1, 0, 0, 1, 120, 39)"><g clip-path="url(#dd8b228bfa)"><g clip-path="url(#19eef2f7bf)"><path fill="#3b210d" d="M 210.960938 118.582031 L 199.574219 221.992188 C 199.492188 222.726562 198.871094 223.277344 198.140625 223.277344 C 198.105469 223.277344 198.074219 223.277344 198.039062 223.273438 C 197.265625 223.21875 196.671875 222.566406 196.695312 221.789062 L 199.558594 124.308594 L 1.277344 8.605469 C 0.617188 8.21875 0.371094 7.386719 0.714844 6.707031 L 3.265625 1.65625 C 3.441406 1.304688 3.757812 1.039062 4.132812 0.925781 C 4.511719 0.816406 4.917969 0.859375 5.261719 1.050781 L 210.234375 117.167969 C 210.738281 117.453125 211.023438 118.007812 210.960938 118.582031 Z M 166.175781 227.617188 C 165.960938 227.078125 165.445312 226.722656 164.863281 226.707031 C 164.289062 226.675781 163.75 227.03125 163.515625 227.5625 C 159.539062 236.464844 153.925781 242.078125 146.363281 244.722656 C 125.640625 251.972656 93.183594 235.152344 61.796875 218.886719 L 55.71875 215.742188 C 55.027344 215.390625 54.171875 215.644531 53.792969 216.332031 C 53.414062 217.019531 53.65625 217.878906 54.332031 218.277344 L 191.558594 298.386719 C 191.785156 298.515625 192.039062 298.582031 192.285156 298.582031 C 192.625 298.582031 192.960938 298.460938 193.226562 298.230469 C 193.695312 297.828125 193.855469 297.175781 193.628906 296.601562 Z M 166.175781 227.617188 " fill-opacity="1" fill-rule="nonzero"/></g></g></g></g></g><g clip-path="url(#eab9200dd9)"><path fill="#3b210d" d="M 334.695312 125.976562 L 222.898438 60.714844 C 221.335938 59.800781 219.460938 59.609375 217.746094 60.183594 C 216.035156 60.757812 214.652344 62.042969 213.953125 63.710938 L 209.753906 73.742188 C 209.34375 74.726562 208.523438 75.488281 207.515625 75.824219 C 206.5 76.160156 205.390625 76.050781 204.46875 75.511719 L 110.390625 20.589844 C 109.976562 20.351562 109.464844 20.328125 109.035156 20.539062 C 108.601562 20.75 108.300781 21.160156 108.234375 21.636719 L 103.878906 52.355469 L 101.023438 50.6875 C 100.585938 50.4375 100.046875 50.429688 99.605469 50.667969 C 99.160156 50.914062 98.875 51.371094 98.855469 51.875 L 98.398438 62.609375 L 88.828125 57.027344 C 88.371094 56.757812 87.808594 56.761719 87.359375 57.035156 C 86.90625 57.308594 86.640625 57.800781 86.660156 58.328125 L 87.113281 70.695312 L 79.574219 66.296875 C 79.105469 66.023438 78.519531 66.039062 78.0625 66.332031 C 77.605469 66.625 77.355469 67.152344 77.410156 67.695312 L 77.921875 72.566406 L 50.015625 56.277344 C 46.726562 54.355469 42.691406 54.671875 39.742188 57.078125 C 36.789062 59.480469 35.667969 63.371094 36.878906 66.980469 L 82.625 203.324219 C 82.636719 203.363281 82.667969 203.394531 82.683594 203.433594 C 82.703125 203.476562 82.730469 203.515625 82.753906 203.558594 C 82.875 203.777344 83.039062 203.980469 83.265625 204.113281 L 92.734375 209.640625 C 92.792969 209.6875 92.828125 209.753906 92.890625 209.789062 L 311.558594 337.386719 C 311.785156 337.515625 312.035156 337.582031 312.285156 337.582031 C 312.484375 337.582031 312.679688 337.527344 312.863281 337.445312 C 312.882812 337.4375 312.90625 337.441406 312.925781 337.433594 C 312.9375 337.425781 312.941406 337.417969 312.949219 337.414062 C 312.957031 337.410156 312.964844 337.410156 312.972656 337.40625 C 312.984375 337.402344 312.988281 337.390625 313 337.382812 C 313.007812 337.378906 313.019531 337.382812 313.027344 337.375 C 313.035156 337.371094 313.039062 337.359375 313.046875 337.355469 C 313.058594 337.347656 313.066406 337.351562 313.074219 337.347656 C 313.085938 337.339844 313.085938 337.332031 313.09375 337.324219 C 313.101562 337.320312 313.109375 337.324219 313.117188 337.316406 C 313.132812 337.308594 313.132812 337.289062 313.148438 337.277344 C 313.171875 337.257812 313.203125 337.253906 313.226562 337.230469 C 313.265625 337.199219 313.269531 337.144531 313.300781 337.109375 C 313.359375 337.050781 313.429688 337.003906 313.476562 336.933594 C 313.496094 336.910156 313.507812 336.886719 313.523438 336.859375 C 313.539062 336.832031 313.550781 336.808594 313.566406 336.78125 C 313.578125 336.757812 313.589844 336.734375 313.601562 336.710938 C 313.621094 336.664062 313.621094 336.617188 313.636719 336.566406 C 313.652344 336.511719 313.671875 336.464844 313.683594 336.40625 C 313.691406 336.375 313.714844 336.351562 313.71875 336.316406 L 338.933594 134.296875 C 339.269531 130.941406 337.605469 127.675781 334.695312 125.976562 Z M 85.1875 201.890625 L 84.445312 199.675781 L 83.417969 196.621094 L 82.96875 195.269531 L 83.5625 195.617188 L 84.90625 196.40625 L 86.253906 197.191406 L 91.285156 200.128906 L 91.878906 200.472656 L 92.5 200.835938 L 92.832031 201.03125 L 93.113281 201.195312 L 93.355469 201.335938 L 93.910156 201.660156 L 94.375 201.933594 L 94.464844 201.984375 L 94.832031 202.195312 L 95.320312 202.484375 L 95.820312 202.773438 L 306.636719 325.847656 L 309.394531 332.777344 L 226.539062 284.40625 L 95.179688 207.722656 L 95.097656 207.675781 L 95.03125 207.632812 L 94.96875 207.601562 L 93.828125 206.933594 L 93.691406 206.851562 L 93.554688 206.773438 L 93.425781 206.699219 L 92.472656 206.140625 L 92.28125 206.03125 L 92.078125 205.910156 L 91.878906 205.796875 Z M 41.566406 59.316406 C 43.164062 58.011719 45.839844 57.183594 48.5625 58.773438 L 78.296875 76.128906 L 79.839844 77.03125 L 81.386719 77.933594 L 87.511719 81.507812 L 88.984375 82.371094 L 90.460938 83.234375 L 97.347656 87.25 L 98.757812 88.074219 L 98.808594 88.105469 L 100.152344 88.890625 L 100.164062 88.898438 L 101.5 89.675781 L 107.109375 92.949219 L 108.460938 93.742188 L 109.816406 94.53125 L 121.089844 101.109375 C 126.664062 104.367188 130.730469 109.574219 132.539062 115.769531 L 134.511719 122.511719 C 136.972656 130.9375 142.5 138.011719 150.078125 142.4375 L 258.941406 205.988281 L 300.980469 311.628906 L 97.132812 192.628906 L 95.777344 191.835938 L 95.773438 191.835938 L 94.425781 191.046875 L 94.421875 191.042969 L 94.367188 191.011719 L 93.160156 190.308594 L 92.957031 190.191406 L 92.945312 190.183594 L 91.613281 189.40625 L 91.46875 189.320312 L 90.066406 188.503906 L 87.683594 187.113281 L 86.335938 186.324219 L 84.992188 185.539062 L 78.414062 181.699219 L 39.617188 66.0625 C 38.613281 63.078125 39.964844 60.621094 41.566406 59.316406 Z M 80.578125 70.226562 L 87.238281 74.113281 L 88.714844 74.972656 L 90.191406 75.835938 L 97.648438 80.1875 L 99.058594 81.007812 L 99.753906 81.417969 L 100.46875 81.832031 L 101.101562 82.203125 L 102.449219 82.988281 L 107.980469 86.214844 L 109.332031 87.007812 L 110.6875 87.796875 L 283.464844 188.617188 L 308.183594 321.921875 L 261.4375 204.457031 C 261.320312 204.15625 261.101562 203.90625 260.824219 203.742188 L 151.535156 139.941406 C 144.59375 135.890625 139.535156 129.414062 137.28125 121.699219 L 135.3125 114.960938 C 133.292969 108.050781 128.757812 102.246094 122.542969 98.613281 L 110.21875 91.417969 L 108.863281 90.628906 L 107.511719 89.839844 L 101.9375 86.585938 L 100.59375 85.800781 L 100.304688 85.632812 L 99.246094 85.015625 L 98.894531 84.808594 L 97.484375 83.988281 L 90.335938 79.8125 L 88.859375 78.953125 L 87.386719 78.089844 L 81.011719 74.371094 Z M 89.640625 60.84375 L 98.257812 65.875 L 99.667969 66.695312 L 101.078125 67.519531 L 101.675781 67.867188 L 103.023438 68.65625 L 104.371094 69.441406 L 109.742188 72.574219 L 111.097656 73.367188 L 112.449219 74.15625 L 292.664062 179.316406 L 305.96875 294.148438 L 286.179688 187.4375 C 286.105469 187.023438 285.851562 186.664062 285.488281 186.453125 L 111.089844 84.683594 L 109.734375 83.894531 L 108.382812 83.105469 L 102.886719 79.898438 L 101.539062 79.113281 L 100.605469 78.566406 L 100.195312 78.328125 L 99.195312 77.746094 L 97.785156 76.921875 L 90.066406 72.417969 Z M 101.636719 54.390625 L 103.4375 55.441406 L 104.785156 56.230469 L 106.132812 57.015625 L 111.359375 60.066406 L 112.714844 60.855469 L 114.066406 61.644531 L 304.800781 172.945312 L 309.480469 299.386719 L 295.449219 178.265625 C 295.398438 177.816406 295.136719 177.414062 294.742188 177.183594 L 112.851562 71.046875 L 111.5 70.253906 L 110.144531 69.464844 L 104.808594 66.351562 L 103.460938 65.566406 L 102.113281 64.777344 L 101.214844 64.253906 Z M 312.507812 303.058594 L 307.65625 172.042969 C 307.636719 171.546875 307.367188 171.097656 306.941406 170.847656 L 114.46875 58.535156 L 116.261719 44.679688 L 319.539062 163.296875 Z M 84.550781 188.628906 L 85.898438 189.414062 L 87.246094 190.203125 L 90.441406 192.066406 L 91.59375 192.742188 L 91.988281 192.96875 L 92.816406 193.453125 L 93.070312 193.601562 L 93.53125 193.871094 L 94.023438 194.15625 L 94.226562 194.277344 L 94.546875 194.464844 L 95.375 194.949219 L 95.636719 195.101562 L 96.730469 195.738281 L 302.714844 315.988281 L 304.902344 321.488281 L 96.222656 199.664062 L 95.460938 199.21875 L 94.867188 198.871094 L 94.703125 198.777344 L 94.050781 198.394531 L 94.003906 198.367188 L 93.515625 198.082031 L 93.226562 197.914062 L 92.640625 197.574219 L 92.457031 197.464844 L 91.753906 197.054688 L 90.914062 196.5625 L 86.691406 194.101562 L 85.347656 193.3125 L 84 192.527344 L 81.570312 191.109375 L 79.808594 185.863281 Z M 323.222656 236.863281 C 321.148438 249.945312 319.015625 253.164062 317.929688 253.917969 C 317.902344 253.933594 317.890625 253.929688 317.867188 253.945312 L 322.464844 162.566406 C 322.492188 162.023438 322.21875 161.515625 321.753906 161.242188 L 115.835938 41.085938 C 115.421875 40.847656 114.910156 40.824219 114.472656 41.039062 C 114.039062 41.253906 113.742188 41.667969 113.679688 42.152344 L 111.761719 56.957031 L 106.570312 53.925781 L 110.789062 24.167969 L 203.015625 78.007812 C 204.65625 78.964844 206.628906 79.171875 208.429688 78.566406 C 210.230469 77.964844 211.683594 76.613281 212.417969 74.859375 L 216.617188 64.828125 C 216.992188 63.925781 217.738281 63.234375 218.664062 62.921875 C 219.589844 62.613281 220.601562 62.71875 221.445312 63.210938 L 333.238281 128.472656 C 335.175781 129.601562 336.285156 131.777344 336.066406 133.972656 Z M 86.585938 158.445312 C 86.660156 158.675781 86.808594 158.863281 86.980469 159.027344 C 87.0625 159.105469 87.136719 159.1875 87.234375 159.246094 L 88.535156 160.007812 L 88.605469 160.046875 L 89.953125 160.835938 L 90.078125 160.90625 L 90.433594 161.113281 L 91.300781 161.621094 L 91.90625 161.976562 L 93.382812 162.835938 L 94.105469 163.257812 L 95.515625 164.082031 L 96.921875 164.902344 L 97.742188 165.382812 L 99.097656 166.171875 L 109.234375 172.089844 C 109.460938 172.222656 109.710938 172.285156 109.960938 172.285156 C 110.285156 172.285156 110.605469 172.179688 110.867188 171.964844 C 111.335938 171.589844 111.519531 170.964844 111.335938 170.394531 L 103.226562 145.484375 L 102.183594 142.285156 L 101.144531 139.082031 L 100.648438 137.5625 C 100.539062 137.226562 100.308594 136.941406 100.003906 136.761719 L 98.167969 135.691406 L 96.761719 134.871094 L 95.351562 134.046875 L 95.21875 133.96875 L 93.875 133.183594 L 92.527344 132.398438 L 92.261719 132.242188 L 90.785156 131.382812 L 89.308594 130.519531 L 86.738281 129.019531 L 85.191406 128.117188 L 83.648438 127.214844 L 78 123.917969 C 77.484375 123.613281 76.832031 123.664062 76.367188 124.039062 C 75.902344 124.417969 75.714844 125.042969 75.902344 125.613281 Z M 92.089844 135.484375 L 92.386719 135.660156 L 93.433594 136.273438 L 94.78125 137.058594 L 95.210938 137.308594 L 98.03125 138.957031 L 98.074219 138.980469 L 100.28125 145.757812 L 101.320312 148.960938 L 102.363281 152.160156 L 107.417969 167.683594 L 100.851562 163.851562 L 99.5 163.0625 L 98.144531 162.269531 L 97.0625 161.640625 L 94.242188 159.992188 L 93.257812 159.417969 L 91.78125 158.558594 L 91.738281 158.53125 L 90.390625 157.742188 L 90.308594 157.695312 L 89.707031 157.34375 L 89.164062 157.027344 L 89.074219 156.75 L 87.773438 152.765625 L 85.636719 146.191406 L 79.820312 128.324219 L 84.019531 130.777344 L 87.113281 132.582031 L 89.433594 133.9375 L 90.910156 134.800781 Z M 92.089844 135.484375 " fill-opacity="1" fill-rule="nonzero"/></g><g mask="url(#e329125988)"><g transform="matrix(1, 0, 0, 1, 5, 249)"><g clip-path="url(#ccd2e6a856)"><g clip-path="url(#74adf119c7)"><g clip-path="url(#bfd23ea1b1)"><path fill="#804f2b" d="M 19.664062 20 L 340.699219 20 L 340.699219 126 L 19.664062 126 Z M 19.664062 20 " fill-opacity="1" fill-rule="nonzero"/></g></g><g clip-path="url(#485b93deab)"><g clip-path="url(#865ca92396)"><path stroke-linecap="butt" transform="matrix(0.749945, 0, 0, 0.748259, 19.665813, 19.999084)" fill="none" stroke-linejoin="miter" d="M 27.99971 0.00122426 L 400.026866 0.00122426 C 415.491536 0.00122426 428.02891 12.535535 428.02891 27.998522 L 428.02891 113.32685 C 428.02891 128.795057 415.491536 141.329368 400.026866 141.329368 L 27.99971 141.329368 C 12.53504 141.329368 -0.0023339 128.795057 -0.0023339 113.32685 L -0.0023339 27.998522 C -0.0023339 12.535535 12.53504 0.00122426 27.99971 0.00122426 Z M 27.99971 0.00122426 " stroke="#000000" stroke-width="12" stroke-opacity="1" stroke-miterlimit="4"/></g></g></g></g></g><path stroke-linecap="butt" transform="matrix(0.75, 0, 0, 0.75, 26.982659, 284.199826)" fill="none" stroke-linejoin="miter" d="M 50.148125 4.540857 C 53.174167 4.540857 56.028333 5.15544 58.710625 6.379399 C 61.413751 7.587732 63.752292 9.228357 65.736667 11.296066 C 67.736668 13.353358 69.304376 15.801275 70.434584 18.645025 C 71.590835 21.493983 72.163751 24.499192 72.163751 27.671067 C 72.163751 31.363776 71.533543 34.613776 70.273126 37.421068 C 69.033543 40.212734 67.392918 42.645026 65.356459 44.717943 C 63.340834 46.770027 61.033542 48.499193 58.439792 49.905443 C 55.866875 51.311694 53.247083 52.488777 50.580416 53.441902 C 47.934583 54.400235 45.330416 55.155444 42.773124 55.712735 C 40.231457 56.270027 38.007499 56.691902 36.101249 56.983569 C 38.892916 55.504402 41.267916 53.723152 43.231458 51.63461 C 45.194999 49.525235 46.778333 47.202318 47.986666 44.660651 C 49.210625 42.10336 50.090833 39.395026 50.6325 36.530443 C 51.189792 33.650234 51.471042 30.697109 51.471042 27.671067 C 51.471042 24.572108 51.137708 21.6294 50.471041 18.837733 C 49.804375 16.025233 48.898125 13.566899 47.741875 11.457524 C 46.606458 9.353357 45.283541 7.676274 43.773124 6.436691 C 42.257499 5.176274 40.622082 4.540857 38.856457 4.540857 Z M 34.101249 74.707528 C 34.101249 76.540862 34.736665 78.217945 36.017916 79.728362 C 37.314791 81.243987 38.924166 81.999196 40.851249 81.999196 L 7.976247 81.999196 C 9.830414 81.999196 11.398122 81.243987 12.674164 79.728362 C 13.971039 78.217945 14.622081 76.540862 14.622081 74.707528 L 14.622081 11.837733 C 14.622081 9.999191 13.971039 8.327316 12.674164 6.811691 C 11.398122 5.301274 9.830414 4.540857 7.976247 4.540857 L 34.101249 4.540857 Z M 112.997087 25.452317 C 115.356462 25.59815 117.382504 26.462734 119.075213 28.046067 C 120.788754 29.634609 121.642921 31.603359 121.642921 33.962734 C 121.642921 36.322109 120.788754 38.358568 119.075213 40.072109 C 117.382504 41.764818 115.356462 42.608568 112.997087 42.608568 C 111.809587 42.608568 110.700212 42.395026 109.67417 41.962735 C 108.648129 41.50961 107.747087 40.900235 106.976254 40.124193 C 106.200212 39.348151 105.585628 38.431484 105.137712 37.368984 C 104.70542 36.285651 104.48667 35.155442 104.48667 33.962734 C 104.48667 33.530442 104.559587 32.947109 104.70542 32.207526 C 105.064795 30.733567 104.76792 29.712734 103.814795 29.155442 C 102.856462 28.59815 101.309586 28.837734 99.163753 29.884609 C 100.122086 29.363775 101.184586 28.84815 102.356462 28.342942 C 103.543962 27.822109 104.747087 27.342942 105.976253 26.91065 C 107.200212 26.462734 108.413754 26.092942 109.622087 25.806484 C 110.846045 25.499192 111.971046 25.384608 112.997087 25.452317 Z M 98.840836 75.92107 C 98.840836 77.23357 99.283545 78.525237 100.163753 79.785654 C 101.04917 81.04607 102.122087 81.785654 103.382503 81.999196 L 77.689793 81.999196 C 78.95021 81.785654 80.017918 81.04607 80.903335 79.785654 C 81.783544 78.525237 82.226252 77.23357 82.226252 75.92107 L 82.226252 36.530443 C 82.226252 35.124192 81.783544 33.822109 80.903335 32.613776 C 80.017918 31.389817 78.95021 30.66065 77.689793 30.426275 L 96.627294 27.671067 L 96.950211 27.671067 C 98.210628 27.671067 98.840836 28.290859 98.840836 29.53565 Z M 153.27834 26.561692 C 156.663757 26.707525 159.830424 27.53565 162.783549 29.046067 C 165.741882 30.561692 168.325216 32.577317 170.538758 35.098151 C 172.757508 37.603359 174.486675 40.530443 175.726258 43.879401 C 176.986675 47.22836 177.616883 50.785652 177.616883 54.551277 C 177.616883 58.316902 176.986675 61.879403 175.726258 65.249194 C 174.486675 68.598153 172.757508 71.525237 170.538758 74.030445 C 168.325216 76.535654 165.741882 78.540862 162.783549 80.056487 C 159.830424 81.566904 156.663757 82.395029 153.27834 82.540862 C 155.77834 82.035654 157.679382 79.405445 158.976257 74.650237 C 160.273132 69.879403 160.924174 63.176278 160.924174 54.551277 C 160.924174 45.926276 160.273132 39.233568 158.976257 34.478359 C 157.679382 29.72315 155.77834 27.082525 153.27834 26.561692 Z M 151.387715 26.561692 C 148.955423 27.082525 147.070006 29.72315 145.736673 34.478359 C 144.424173 39.233568 143.767923 45.926276 143.767923 54.551277 C 143.767923 63.176278 144.424173 69.879403 145.736673 74.650237 C 147.070006 79.405445 148.955423 82.035654 151.387715 82.540862 C 147.99709 82.395029 144.830423 81.566904 141.877297 80.056487 C 138.918964 78.540862 136.356464 76.535654 134.174172 74.030445 C 132.012713 71.525237 130.30438 68.598153 129.043963 65.249194 C 127.783547 61.879403 127.153338 58.316902 127.153338 54.551277 C 127.153338 50.785652 127.783547 47.22836 129.043963 43.879401 C 130.30438 40.530443 132.012713 37.603359 134.174172 35.098151 C 136.356464 32.577317 138.918964 30.561692 141.877297 29.046067 C 144.830423 27.53565 147.99709 26.707525 151.387715 26.561692 Z M 195.543968 103.80128 C 195.543968 105.134614 196.111676 106.186697 197.247093 106.962739 C 198.398135 107.738781 199.642926 108.270031 200.97626 108.556489 C 198.543968 108.197114 196.236676 107.478364 194.059593 106.39503 C 191.877301 105.33253 189.997092 104.08253 188.413759 102.639822 C 186.825217 101.202322 185.549175 99.650238 184.575217 97.993988 C 183.622092 96.337738 183.142925 94.733571 183.142925 93.186696 C 183.142925 90.827321 183.97105 88.806488 185.6273 87.134613 C 187.304384 85.478362 189.320009 84.645029 191.679384 84.645029 C 192.851259 84.645029 193.965843 84.863779 195.028343 85.296071 C 196.111676 85.743987 197.038759 86.358571 197.814801 87.134613 C 198.585635 87.905446 199.189801 88.806488 199.622093 89.832529 C 200.075218 90.879404 200.299176 91.993988 200.299176 93.186696 C 200.299176 94.499196 200.054385 95.598155 199.57001 96.478363 C 199.10126 97.379405 198.57001 98.202322 197.976259 98.941905 C 197.382509 99.67628 196.840843 100.415863 196.356468 101.155447 C 195.887718 101.89503 195.616884 102.775239 195.543968 103.80128 Z M 221.991886 27.671067 C 222.585636 27.671067 223.064803 27.842942 223.424178 28.181484 C 223.804386 28.509609 223.991886 28.957525 223.991886 29.53565 L 223.991886 93.186696 C 223.991886 94.733571 223.585636 96.316905 222.778344 97.941905 C 221.965844 99.561697 220.840844 101.072113 219.398136 102.478364 C 217.960636 103.884614 216.273136 105.118989 214.346052 106.181489 C 212.439802 107.243989 210.41376 107.999197 208.267927 108.447114 C 209.528344 108.160656 210.710635 107.629406 211.809594 106.853364 C 212.924177 106.08253 213.481469 105.061697 213.481469 103.80128 C 213.481469 102.686697 213.184594 101.723155 212.590844 100.910655 C 211.997094 100.103363 211.314802 99.306488 210.53876 98.535655 C 209.762719 97.759613 209.043969 96.947113 208.377302 96.103363 C 207.710635 95.254405 207.340843 94.285655 207.267927 93.186696 L 207.267927 36.530443 C 207.267927 35.124192 206.846052 33.822109 205.997093 32.613776 C 205.153343 31.389817 204.064802 30.66065 202.731468 30.426275 L 221.778344 27.671067 Z M 215.700219 21.697108 C 214.507511 21.697108 213.377302 21.483567 212.293969 21.051275 C 211.231469 20.59815 210.314802 19.988775 209.53876 19.212733 C 208.762719 18.436691 208.153343 17.540858 207.700218 16.509608 C 207.267927 15.467941 207.054385 14.348149 207.054385 13.160649 C 207.054385 10.801274 207.898135 8.775232 209.590844 7.082524 C 211.304385 5.389816 213.340844 4.540857 215.700219 4.540857 C 216.866886 4.540857 217.965844 4.770024 218.991886 5.21794 C 220.038761 5.650232 220.950219 6.254399 221.721053 7.030441 C 222.497094 7.801274 223.101261 8.733566 223.533553 9.811691 C 223.98147 10.874191 224.210636 11.988774 224.210636 13.160649 C 224.210636 15.520025 223.382511 17.540858 221.721053 19.212733 C 220.064803 20.868983 218.059594 21.697108 215.700219 21.697108 Z M 264.606472 75.462737 C 266.731472 75.462737 268.830431 74.931487 270.903348 73.868987 C 272.976264 72.806487 274.783556 71.311695 276.33564 69.384611 C 274.116889 73.363778 271.127306 76.551279 267.361681 78.947112 C 263.601264 81.342945 259.465847 82.540862 254.960638 82.540862 C 251.507513 82.540862 248.247096 81.811696 245.184596 80.353362 C 242.122096 78.874195 239.445012 76.884612 237.158554 74.379403 C 234.872095 71.85857 233.059595 68.905445 231.726262 65.520028 C 230.398137 62.113778 229.73147 58.457527 229.73147 54.551277 C 229.73147 50.712735 230.398137 47.087735 231.726262 43.66586 C 233.059595 40.223151 234.872095 37.249193 237.158554 34.749192 C 239.445012 32.243984 242.122096 30.2544 245.184596 28.775234 C 248.247096 27.301275 251.507513 26.561692 254.960638 26.561692 C 254.226263 26.707525 253.36168 27.389817 252.372096 28.613775 C 251.377305 29.822109 250.434596 31.426276 249.533555 33.426276 C 248.648138 35.405442 247.892929 37.712734 247.262721 40.342943 C 246.653346 42.952318 246.346054 45.733568 246.346054 48.686693 C 246.346054 52.379402 246.820013 55.848152 247.778346 59.087736 C 248.731471 62.332528 250.038763 65.176278 251.695013 67.629403 C 253.366888 70.056486 255.304388 71.978362 257.502305 73.379403 C 259.715847 74.770028 262.085639 75.462737 264.606472 75.462737 Z M 263.257514 45.473151 C 263.257514 43.25961 263.075222 41.10336 262.715847 39.014818 C 262.356472 36.910651 261.877305 35.009609 261.283555 33.316901 C 260.689805 31.624192 259.971055 30.181484 259.122097 28.993984 C 258.278347 27.806484 257.377305 26.993984 256.42418 26.561692 C 259.215847 26.780442 261.825222 27.478359 264.257514 28.671067 C 266.705431 29.837734 268.887722 31.389817 270.793973 33.316901 C 272.721056 35.223151 274.325223 37.478359 275.601265 40.072109 C 276.89814 42.645026 277.846056 45.44711 278.439806 48.473152 L 260.179389 48.473152 C 260.98668 48.473152 261.700222 48.176277 262.309597 47.582527 C 262.939805 46.988777 263.257514 46.285652 263.257514 45.473151 Z M 309.1846 26.561692 C 308.445017 26.707525 307.580433 27.389817 306.59085 28.613775 C 305.601267 29.822109 304.65335 31.426276 303.752308 33.426276 C 302.8721 35.405442 302.116891 37.712734 301.486683 40.342943 C 300.8721 42.952318 300.564808 45.733568 300.564808 48.686693 C 300.564808 52.379402 301.043975 55.848152 301.9971 59.087736 C 302.950225 62.332528 304.257516 65.176278 305.913767 67.629403 C 307.59085 70.056486 309.52835 71.978362 311.726267 73.379403 C 313.939809 74.770028 316.309601 75.462737 318.830434 75.462737 C 320.955434 75.462737 323.054393 74.931487 325.122101 73.868987 C 327.195018 72.806487 329.007518 71.311695 330.554393 69.384611 C 328.340851 73.363778 325.351268 76.551279 321.585643 78.947112 C 317.820017 81.342945 313.689809 82.540862 309.1846 82.540862 C 305.726267 82.540862 302.46585 81.811696 299.403349 80.353362 C 296.340849 78.874195 293.668974 76.884612 291.382516 74.379403 C 289.090849 71.85857 287.283557 68.905445 285.950224 65.520028 C 284.61689 62.113778 283.950223 58.457527 283.950223 54.551277 C 283.950223 50.712735 284.61689 47.087735 285.950224 43.66586 C 287.283557 40.223151 289.090849 37.249193 291.382516 34.749192 C 293.668974 32.243984 296.340849 30.2544 299.403349 28.775234 C 302.46585 27.301275 305.726267 26.561692 309.1846 26.561692 Z M 311.075225 26.561692 C 313.721059 26.780442 316.226267 27.41065 318.585642 28.452317 C 320.965851 29.478359 323.033559 30.733567 324.799184 32.207526 C 326.56481 33.686692 327.960643 35.306484 328.986685 37.072109 C 330.03356 38.837734 330.554393 40.530443 330.554393 42.150235 C 330.554393 44.530443 329.700226 46.546068 327.986685 48.202318 C 326.293976 49.858568 324.267934 50.686693 321.908559 50.686693 C 319.549184 50.686693 317.543976 49.858568 315.882517 48.202318 C 314.226267 46.546068 313.398142 44.530443 313.398142 42.150235 C 313.398142 39.863776 314.174184 37.874193 315.721059 36.181484 C 316.460642 35.441901 317.043976 34.686692 317.476267 33.910651 C 317.929392 33.134609 318.153351 32.342942 318.153351 31.530442 C 318.153351 30.796067 317.929392 30.118984 317.476267 29.5044 C 317.043976 28.874192 316.481476 28.363775 315.778351 27.967942 C 315.075226 27.551275 314.299184 27.238775 313.455434 27.020025 C 312.606475 26.78565 311.814809 26.634609 311.075225 26.561692 Z M 357.330437 33.962734 L 357.330437 72.030445 C 357.330437 73.743987 357.898145 75.176278 359.033562 76.32732 C 360.184603 77.462737 361.575229 78.030445 363.19502 78.030445 C 364.293979 78.030445 365.330437 77.73357 366.304396 77.134612 C 365.637729 77.63982 364.85127 78.207529 363.950229 78.837737 C 363.07002 79.467945 362.080437 80.061695 360.981479 80.624195 C 359.88252 81.181487 358.66377 81.639821 357.330437 81.999196 C 355.997103 82.358571 354.559603 82.540862 353.00752 82.540862 C 351.314811 82.540862 349.715853 82.217946 348.200228 81.566904 C 346.689811 80.900237 345.372102 79.999195 344.257519 78.863779 C 343.158561 77.712737 342.273144 76.379403 341.606477 74.868987 C 340.939811 73.353362 340.606477 71.749195 340.606477 70.056486 L 340.606477 33.639817 C 340.606477 32.306484 340.184602 31.035651 339.340852 29.832525 C 338.491894 28.608567 337.403352 27.84815 336.070019 27.561692 C 340.28356 27.2544 344.195019 26.238775 347.793978 24.509608 C 351.41377 22.780442 354.596061 20.509608 357.330437 17.702316 L 357.330437 27.561692 L 361.762729 27.561692 C 360.502312 27.84815 359.450228 28.608567 358.60127 29.832525 C 357.75752 31.035651 357.330437 32.306484 357.330437 33.639817 Z M 384.002313 78.134612 C 384.148147 79.165862 384.783563 80.098154 385.91898 80.947112 C 387.07523 81.790862 388.684605 82.285654 390.757522 82.431487 C 388.163772 82.285654 385.741897 81.811696 383.486688 80.999195 C 381.236688 80.191904 379.26273 79.160654 377.570021 77.92107 C 375.877313 76.660654 374.528354 75.20232 373.517938 73.54607 C 372.528354 71.868987 372.033563 70.07732 372.033563 68.165861 C 372.033563 65.806486 372.861688 63.801278 374.517938 62.145028 C 376.195021 60.483569 378.210646 59.655444 380.570021 59.655444 C 381.741897 59.655444 382.85648 59.884611 383.91898 60.332527 C 385.002313 60.764819 385.929397 61.368986 386.705439 62.145028 C 387.476272 62.915861 388.080439 63.816903 388.51273 64.842944 C 388.965855 65.868986 389.189814 66.978361 389.189814 68.165861 C 389.189814 69.499195 388.908564 70.743986 388.351272 71.895028 C 387.809605 73.030445 387.064814 74.004403 386.111689 74.811695 C 385.51273 75.316903 384.991897 75.848153 384.54398 76.405445 C 384.111688 76.967945 383.929397 77.540862 384.002313 78.134612 Z M 413.773149 67.061695 C 413.918982 69.275236 413.450232 71.32732 412.366899 73.217945 C 411.304398 75.092945 409.793982 76.712737 407.83044 78.082529 C 405.887731 79.431487 403.616898 80.51482 401.023148 81.322112 C 398.445023 82.134612 395.715856 82.540862 392.835647 82.540862 C 394.835647 82.540862 396.538773 81.728362 397.945023 80.10857 C 399.346064 78.488779 400.049189 76.686695 400.049189 74.707528 C 400.049189 72.848153 399.366898 71.056486 397.997106 69.32732 C 396.627314 67.598153 394.887731 65.868986 392.783564 64.139819 C 390.695022 62.395028 388.439814 60.603361 386.028355 58.764819 C 383.632522 56.910652 381.382522 54.993985 379.273146 53.00961 C 377.184605 51.00961 375.455438 48.905443 374.085646 46.691902 C 372.715854 44.473151 372.033563 42.077318 372.033563 39.504401 C 372.033563 37.285651 372.616896 35.368984 373.788771 33.749192 C 374.976271 32.129401 376.471063 30.785651 378.273146 29.72315 C 380.096063 28.639817 382.111688 27.84815 384.32523 27.342942 C 386.54398 26.822109 388.684605 26.561692 390.757522 26.561692 C 391.403356 26.561692 392.007522 26.561692 392.564814 26.561692 C 393.122106 26.561692 393.700231 26.634609 394.293981 26.780442 C 392.293981 26.488775 390.57523 26.957525 389.132522 28.181484 C 387.695022 29.389817 386.976272 31.207526 386.976272 33.639817 C 386.976272 35.639817 387.60648 37.483568 388.866897 39.176276 C 390.127314 40.874193 391.710647 42.530443 393.622106 44.150235 C 395.549189 45.770026 397.627314 47.421068 399.861689 49.092943 C 402.11169 50.749193 404.23669 52.47836 406.23669 54.280444 C 408.23669 56.082527 409.929398 58.035652 411.314815 60.145027 C 412.721065 62.249194 413.538774 64.556486 413.773149 67.061695 Z M 410.101273 46.04086 C 409.809607 44.421068 409.351273 42.592943 408.721065 40.556484 C 408.090857 38.520026 407.200232 36.582526 406.04919 34.749192 C 404.913773 32.910651 403.481481 31.270026 401.752315 29.832525 C 400.023148 28.389817 397.908564 27.41065 395.403356 26.884609 C 396.575231 27.103359 397.653356 27.363775 398.642939 27.671067 C 399.653356 27.957525 400.601273 28.2544 401.481481 28.561692 C 402.36169 28.84815 403.226273 29.0669 404.075231 29.207525 C 404.92419 29.353359 405.83044 29.389817 406.804398 29.3169 C 407.382523 29.243984 408.01794 29.103359 408.721065 28.884609 C 409.42419 28.671067 409.882523 28.41065 410.101273 28.103359 Z M 410.101273 46.04086 " stroke="#291608" stroke-width="8.300175" stroke-opacity="1" stroke-miterlimit="4"/><g fill="#ffffff" fill-opacity="1"><g transform="translate(30.896721, 345.699822)"><g><path d="M 33.703125 -58.09375 C 35.960938 -58.09375 38.101562 -57.632812 40.125 -56.71875 C 42.144531 -55.8125 43.898438 -54.582031 45.390625 -53.03125 C 46.890625 -51.488281 48.066406 -49.648438 48.921875 -47.515625 C 49.785156 -45.390625 50.21875 -43.132812 50.21875 -40.75 C 50.21875 -37.988281 49.742188 -35.554688 48.796875 -33.453125 C 47.859375 -31.347656 46.628906 -29.519531 45.109375 -27.96875 C 43.585938 -26.414062 41.859375 -25.113281 39.921875 -24.0625 C 37.984375 -23.019531 36.019531 -22.132812 34.03125 -21.40625 C 32.039062 -20.6875 30.085938 -20.117188 28.171875 -19.703125 C 26.265625 -19.296875 24.59375 -18.984375 23.15625 -18.765625 C 25.257812 -19.867188 27.039062 -21.207031 28.5 -22.78125 C 29.96875 -24.363281 31.160156 -26.109375 32.078125 -28.015625 C 32.992188 -29.921875 33.65625 -31.953125 34.0625 -34.109375 C 34.476562 -36.265625 34.6875 -38.476562 34.6875 -40.75 C 34.6875 -43.070312 34.4375 -45.285156 33.9375 -47.390625 C 33.445312 -49.492188 32.769531 -51.332031 31.90625 -52.90625 C 31.050781 -54.488281 30.054688 -55.75 28.921875 -56.6875 C 27.785156 -57.625 26.554688 -58.09375 25.234375 -58.09375 Z M 21.65625 -5.484375 C 21.65625 -4.097656 22.140625 -2.835938 23.109375 -1.703125 C 24.078125 -0.566406 25.28125 0 26.71875 0 L 2.078125 0 C 3.460938 0 4.640625 -0.566406 5.609375 -1.703125 C 6.578125 -2.835938 7.0625 -4.097656 7.0625 -5.484375 L 7.0625 -52.625 C 7.0625 -54.007812 6.578125 -55.265625 5.609375 -56.390625 C 4.640625 -57.523438 3.460938 -58.09375 2.078125 -58.09375 L 21.65625 -58.09375 Z M 21.65625 -5.484375 "/></g></g></g><g fill="#ffffff" fill-opacity="1"><g transform="translate(83.181798, 345.699822)"><g><path d="M 28.546875 -42.40625 C 30.316406 -42.300781 31.835938 -41.648438 33.109375 -40.453125 C 34.390625 -39.265625 35.03125 -37.785156 35.03125 -36.015625 C 35.03125 -34.242188 34.390625 -32.722656 33.109375 -31.453125 C 31.835938 -30.179688 30.316406 -29.546875 28.546875 -29.546875 C 27.660156 -29.546875 26.832031 -29.710938 26.0625 -30.046875 C 25.289062 -30.378906 24.613281 -30.832031 24.03125 -31.40625 C 23.445312 -31.988281 22.988281 -32.679688 22.65625 -33.484375 C 22.320312 -34.285156 22.15625 -35.128906 22.15625 -36.015625 C 22.15625 -36.347656 22.210938 -36.789062 22.328125 -37.34375 C 22.597656 -38.457031 22.375 -39.21875 21.65625 -39.625 C 20.9375 -40.039062 19.773438 -39.863281 18.171875 -39.09375 C 18.890625 -39.476562 19.691406 -39.863281 20.578125 -40.25 C 21.460938 -40.644531 22.363281 -41.003906 23.28125 -41.328125 C 24.195312 -41.660156 25.109375 -41.9375 26.015625 -42.15625 C 26.929688 -42.382812 27.773438 -42.46875 28.546875 -42.40625 Z M 17.921875 -4.5625 C 17.921875 -3.570312 18.253906 -2.601562 18.921875 -1.65625 C 19.585938 -0.71875 20.390625 -0.164062 21.328125 0 L 2.078125 0 C 3.015625 -0.164062 3.816406 -0.71875 4.484375 -1.65625 C 5.148438 -2.601562 5.484375 -3.570312 5.484375 -4.5625 L 5.484375 -34.109375 C 5.484375 -35.160156 5.148438 -36.140625 4.484375 -37.046875 C 3.816406 -37.960938 3.015625 -38.503906 2.078125 -38.671875 L 16.265625 -40.75 L 16.515625 -40.75 C 17.453125 -40.75 17.921875 -40.28125 17.921875 -39.34375 Z M 17.921875 -4.5625 "/></g></g></g><g fill="#ffffff" fill-opacity="1"><g transform="translate(120.279306, 345.699822)"><g><path d="M 21.65625 -41.578125 C 24.207031 -41.472656 26.585938 -40.851562 28.796875 -39.71875 C 31.015625 -38.582031 32.953125 -37.070312 34.609375 -35.1875 C 36.265625 -33.3125 37.5625 -31.113281 38.5 -28.59375 C 39.445312 -26.070312 39.921875 -23.398438 39.921875 -20.578125 C 39.921875 -17.753906 39.445312 -15.082031 38.5 -12.5625 C 37.5625 -10.050781 36.265625 -7.851562 34.609375 -5.96875 C 32.953125 -4.09375 31.015625 -2.585938 28.796875 -1.453125 C 26.585938 -0.316406 24.207031 0.304688 21.65625 0.421875 C 23.539062 0.0234375 24.96875 -1.953125 25.9375 -5.515625 C 26.90625 -9.085938 27.390625 -14.109375 27.390625 -20.578125 C 27.390625 -27.054688 26.90625 -32.078125 25.9375 -35.640625 C 24.96875 -39.210938 23.539062 -41.191406 21.65625 -41.578125 Z M 20.25 -41.578125 C 18.425781 -41.191406 17.015625 -39.210938 16.015625 -35.640625 C 15.023438 -32.078125 14.53125 -27.054688 14.53125 -20.578125 C 14.53125 -14.109375 15.023438 -9.085938 16.015625 -5.515625 C 17.015625 -1.953125 18.425781 0.0234375 20.25 0.421875 C 17.707031 0.304688 15.328125 -0.316406 13.109375 -1.453125 C 10.898438 -2.585938 8.976562 -4.09375 7.34375 -5.96875 C 5.707031 -7.851562 4.421875 -10.050781 3.484375 -12.5625 C 2.546875 -15.082031 2.078125 -17.753906 2.078125 -20.578125 C 2.078125 -23.398438 2.546875 -26.070312 3.484375 -28.59375 C 4.421875 -31.113281 5.707031 -33.3125 7.34375 -35.1875 C 8.976562 -37.070312 10.898438 -38.582031 13.109375 -39.71875 C 15.328125 -40.851562 17.707031 -41.472656 20.25 -41.578125 Z M 20.25 -41.578125 "/></g></g></g><g fill="#ffffff" fill-opacity="1"><g transform="translate(162.273352, 345.699822)"><g><path d="M 11.375 16.34375 C 11.375 17.34375 11.800781 18.132812 12.65625 18.71875 C 13.507812 19.300781 14.4375 19.703125 15.4375 19.921875 C 13.613281 19.640625 11.882812 19.097656 10.25 18.296875 C 8.613281 17.492188 7.203125 16.550781 6.015625 15.46875 C 4.828125 14.394531 3.875 13.234375 3.15625 11.984375 C 2.4375 10.742188 2.078125 9.546875 2.078125 8.390625 C 2.078125 6.617188 2.695312 5.109375 3.9375 3.859375 C 5.1875 2.609375 6.695312 1.984375 8.46875 1.984375 C 9.351562 1.984375 10.195312 2.148438 11 2.484375 C 11.800781 2.816406 12.488281 3.273438 13.0625 3.859375 C 13.644531 4.441406 14.101562 5.117188 14.4375 5.890625 C 14.769531 6.671875 14.9375 7.503906 14.9375 8.390625 C 14.9375 9.378906 14.753906 10.207031 14.390625 10.875 C 14.035156 11.539062 13.632812 12.148438 13.1875 12.703125 C 12.75 13.253906 12.347656 13.804688 11.984375 14.359375 C 11.628906 14.910156 11.425781 15.570312 11.375 16.34375 Z M 31.203125 -40.75 C 31.648438 -40.75 32.007812 -40.625 32.28125 -40.375 C 32.5625 -40.125 32.703125 -39.78125 32.703125 -39.34375 L 32.703125 8.390625 C 32.703125 9.546875 32.394531 10.734375 31.78125 11.953125 C 31.175781 13.171875 30.332031 14.304688 29.25 15.359375 C 28.175781 16.410156 26.921875 17.335938 25.484375 18.140625 C 24.046875 18.941406 22.523438 19.507812 20.921875 19.84375 C 21.859375 19.613281 22.738281 19.207031 23.5625 18.625 C 24.394531 18.050781 24.8125 17.289062 24.8125 16.34375 C 24.8125 15.519531 24.585938 14.800781 24.140625 14.1875 C 23.703125 13.582031 23.191406 12.988281 22.609375 12.40625 C 22.035156 11.820312 21.5 11.210938 21 10.578125 C 20.5 9.941406 20.222656 9.210938 20.171875 8.390625 L 20.171875 -34.109375 C 20.171875 -35.160156 19.851562 -36.140625 19.21875 -37.046875 C 18.582031 -37.960938 17.765625 -38.503906 16.765625 -38.671875 L 31.046875 -40.75 Z M 26.484375 -45.234375 C 25.597656 -45.234375 24.75 -45.398438 23.9375 -45.734375 C 23.132812 -46.066406 22.441406 -46.519531 21.859375 -47.09375 C 21.285156 -47.675781 20.832031 -48.351562 20.5 -49.125 C 20.164062 -49.90625 20 -50.738281 20 -51.625 C 20 -53.394531 20.632812 -54.914062 21.90625 -56.1875 C 23.1875 -57.457031 24.710938 -58.09375 26.484375 -58.09375 C 27.367188 -58.09375 28.195312 -57.925781 28.96875 -57.59375 C 29.738281 -57.269531 30.414062 -56.816406 31 -56.234375 C 31.582031 -55.648438 32.039062 -54.957031 32.375 -54.15625 C 32.707031 -53.351562 32.875 -52.507812 32.875 -51.625 C 32.875 -49.851562 32.25 -48.34375 31 -47.09375 C 29.757812 -45.851562 28.253906 -45.234375 26.484375 -45.234375 Z M 26.484375 -45.234375 "/></g></g></g><g fill="#ffffff" fill-opacity="1"><g transform="translate(197.213066, 345.699822)"><g><path d="M 28.21875 -4.890625 C 29.820312 -4.890625 31.398438 -5.289062 32.953125 -6.09375 C 34.503906 -6.894531 35.859375 -8.019531 37.015625 -9.46875 C 35.359375 -6.476562 33.117188 -4.082031 30.296875 -2.28125 C 27.472656 -0.476562 24.375 0.421875 21 0.421875 C 18.394531 0.421875 15.941406 -0.128906 13.640625 -1.234375 C 11.347656 -2.347656 9.34375 -3.84375 7.625 -5.71875 C 5.914062 -7.601562 4.5625 -9.816406 3.5625 -12.359375 C 2.570312 -14.910156 2.078125 -17.648438 2.078125 -20.578125 C 2.078125 -23.460938 2.570312 -26.191406 3.5625 -28.765625 C 4.5625 -31.335938 5.914062 -33.5625 7.625 -35.4375 C 9.34375 -37.320312 11.347656 -38.816406 13.640625 -39.921875 C 15.941406 -41.023438 18.394531 -41.578125 21 -41.578125 C 20.445312 -41.472656 19.796875 -40.960938 19.046875 -40.046875 C 18.296875 -39.128906 17.585938 -37.925781 16.921875 -36.4375 C 16.265625 -34.945312 15.703125 -33.21875 15.234375 -31.25 C 14.765625 -29.28125 14.53125 -27.191406 14.53125 -24.984375 C 14.53125 -22.210938 14.890625 -19.609375 15.609375 -17.171875 C 16.328125 -14.742188 17.304688 -12.613281 18.546875 -10.78125 C 19.796875 -8.957031 21.25 -7.519531 22.90625 -6.46875 C 24.5625 -5.414062 26.332031 -4.890625 28.21875 -4.890625 Z M 27.21875 -27.390625 C 27.21875 -29.046875 27.078125 -30.660156 26.796875 -32.234375 C 26.523438 -33.816406 26.164062 -35.242188 25.71875 -36.515625 C 25.28125 -37.785156 24.742188 -38.863281 24.109375 -39.75 C 23.472656 -40.632812 22.796875 -41.242188 22.078125 -41.578125 C 24.179688 -41.410156 26.144531 -40.882812 27.96875 -40 C 29.789062 -39.113281 31.421875 -37.953125 32.859375 -36.515625 C 34.304688 -35.078125 35.515625 -33.390625 36.484375 -31.453125 C 37.453125 -29.515625 38.15625 -27.414062 38.59375 -25.15625 L 24.90625 -25.15625 C 25.507812 -25.15625 26.046875 -25.375 26.515625 -25.8125 C 26.984375 -26.257812 27.21875 -26.785156 27.21875 -27.390625 Z M 27.21875 -27.390625 "/></g></g></g><g fill="#ffffff" fill-opacity="1"><g transform="translate(237.879243, 345.699822)"><g><path d="M 21 -41.578125 C 20.445312 -41.472656 19.796875 -40.960938 19.046875 -40.046875 C 18.296875 -39.128906 17.585938 -37.925781 16.921875 -36.4375 C 16.265625 -34.945312 15.703125 -33.21875 15.234375 -31.25 C 14.765625 -29.28125 14.53125 -27.191406 14.53125 -24.984375 C 14.53125 -22.210938 14.890625 -19.609375 15.609375 -17.171875 C 16.328125 -14.742188 17.304688 -12.613281 18.546875 -10.78125 C 19.796875 -8.957031 21.25 -7.519531 22.90625 -6.46875 C 24.5625 -5.414062 26.332031 -4.890625 28.21875 -4.890625 C 29.820312 -4.890625 31.398438 -5.289062 32.953125 -6.09375 C 34.503906 -6.894531 35.859375 -8.019531 37.015625 -9.46875 C 35.359375 -6.476562 33.117188 -4.082031 30.296875 -2.28125 C 27.472656 -0.476562 24.375 0.421875 21 0.421875 C 18.394531 0.421875 15.941406 -0.128906 13.640625 -1.234375 C 11.347656 -2.347656 9.34375 -3.84375 7.625 -5.71875 C 5.914062 -7.601562 4.5625 -9.816406 3.5625 -12.359375 C 2.570312 -14.910156 2.078125 -17.648438 2.078125 -20.578125 C 2.078125 -23.460938 2.570312 -26.191406 3.5625 -28.765625 C 4.5625 -31.335938 5.914062 -33.5625 7.625 -35.4375 C 9.34375 -37.320312 11.347656 -38.816406 13.640625 -39.921875 C 15.941406 -41.023438 18.394531 -41.578125 21 -41.578125 Z M 22.40625 -41.578125 C 24.394531 -41.410156 26.273438 -40.941406 28.046875 -40.171875 C 29.816406 -39.398438 31.363281 -38.457031 32.6875 -37.34375 C 34.019531 -36.238281 35.070312 -35.019531 35.84375 -33.6875 C 36.625 -32.363281 37.015625 -31.09375 37.015625 -29.875 C 37.015625 -28.101562 36.378906 -26.59375 35.109375 -25.34375 C 33.835938 -24.101562 32.316406 -23.484375 30.546875 -23.484375 C 28.773438 -23.484375 27.265625 -24.101562 26.015625 -25.34375 C 24.773438 -26.59375 24.15625 -28.101562 24.15625 -29.875 C 24.15625 -31.59375 24.734375 -33.085938 25.890625 -34.359375 C 26.441406 -34.910156 26.882812 -35.476562 27.21875 -36.0625 C 27.550781 -36.644531 27.71875 -37.238281 27.71875 -37.84375 C 27.71875 -38.394531 27.550781 -38.90625 27.21875 -39.375 C 26.882812 -39.851562 26.457031 -40.242188 25.9375 -40.546875 C 25.414062 -40.847656 24.832031 -41.082031 24.1875 -41.25 C 23.550781 -41.414062 22.957031 -41.523438 22.40625 -41.578125 Z M 22.40625 -41.578125 "/></g></g></g><g fill="#ffffff" fill-opacity="1"><g transform="translate(276.968573, 345.699822)"><g><path d="M 18.015625 -36.015625 L 18.015625 -7.46875 C 18.015625 -6.195312 18.441406 -5.128906 19.296875 -4.265625 C 20.148438 -3.410156 21.1875 -2.984375 22.40625 -2.984375 C 23.238281 -2.984375 24.015625 -3.207031 24.734375 -3.65625 C 24.234375 -3.269531 23.648438 -2.835938 22.984375 -2.359375 C 22.328125 -1.890625 21.582031 -1.445312 20.75 -1.03125 C 19.914062 -0.625 19 -0.28125 18 0 C 17.007812 0.28125 15.9375 0.421875 14.78125 0.421875 C 13.5 0.421875 12.289062 0.171875 11.15625 -0.328125 C 10.03125 -0.828125 9.050781 -1.503906 8.21875 -2.359375 C 7.382812 -3.222656 6.71875 -4.222656 6.21875 -5.359375 C 5.726562 -6.492188 5.484375 -7.695312 5.484375 -8.96875 L 5.484375 -36.265625 C 5.484375 -37.265625 5.160156 -38.21875 4.515625 -39.125 C 3.878906 -40.039062 3.066406 -40.613281 2.078125 -40.84375 C 5.234375 -41.0625 8.164062 -41.816406 10.875 -43.109375 C 13.582031 -44.410156 15.960938 -46.113281 18.015625 -48.21875 L 18.015625 -40.84375 L 21.328125 -40.84375 C 20.390625 -40.613281 19.601562 -40.039062 18.96875 -39.125 C 18.332031 -38.21875 18.015625 -37.265625 18.015625 -36.265625 Z M 18.015625 -36.015625 "/></g></g></g><g fill="#ffffff" fill-opacity="1"><g transform="translate(303.941036, 345.699822)"><g><path d="M 11.03125 -2.90625 C 11.144531 -2.132812 11.628906 -1.425781 12.484375 -0.78125 C 13.347656 -0.144531 14.554688 0.222656 16.109375 0.328125 C 14.171875 0.222656 12.359375 -0.128906 10.671875 -0.734375 C 8.984375 -1.347656 7.5 -2.125 6.21875 -3.0625 C 4.945312 -4.007812 3.9375 -5.101562 3.1875 -6.34375 C 2.445312 -7.59375 2.078125 -8.9375 2.078125 -10.375 C 2.078125 -12.144531 2.695312 -13.648438 3.9375 -14.890625 C 5.1875 -16.140625 6.695312 -16.765625 8.46875 -16.765625 C 9.351562 -16.765625 10.195312 -16.597656 11 -16.265625 C 11.800781 -15.929688 12.488281 -15.472656 13.0625 -14.890625 C 13.644531 -14.316406 14.101562 -13.640625 14.4375 -12.859375 C 14.769531 -12.085938 14.9375 -11.257812 14.9375 -10.375 C 14.9375 -9.375 14.726562 -8.445312 14.3125 -7.59375 C 13.894531 -6.738281 13.328125 -6.003906 12.609375 -5.390625 C 12.171875 -5.003906 11.785156 -4.601562 11.453125 -4.1875 C 11.117188 -3.769531 10.976562 -3.34375 11.03125 -2.90625 Z M 33.359375 -11.203125 C 33.472656 -9.546875 33.128906 -8.007812 32.328125 -6.59375 C 31.523438 -5.1875 30.390625 -3.96875 28.921875 -2.9375 C 27.453125 -1.914062 25.75 -1.097656 23.8125 -0.484375 C 21.882812 0.117188 19.835938 0.421875 17.671875 0.421875 C 19.171875 0.421875 20.445312 -0.1875 21.5 -1.40625 C 22.550781 -2.625 23.078125 -3.984375 23.078125 -5.484375 C 23.078125 -6.859375 22.5625 -8.195312 21.53125 -9.5 C 20.507812 -10.800781 19.207031 -12.101562 17.625 -13.40625 C 16.050781 -14.707031 14.363281 -16.046875 12.5625 -17.421875 C 10.769531 -18.804688 9.082031 -20.242188 7.5 -21.734375 C 5.925781 -23.234375 4.628906 -24.8125 3.609375 -26.46875 C 2.585938 -28.132812 2.078125 -29.9375 2.078125 -31.875 C 2.078125 -33.53125 2.519531 -34.96875 3.40625 -36.1875 C 4.289062 -37.40625 5.410156 -38.414062 6.765625 -39.21875 C 8.117188 -40.019531 9.625 -40.613281 11.28125 -41 C 12.945312 -41.382812 14.554688 -41.578125 16.109375 -41.578125 C 16.597656 -41.578125 17.050781 -41.578125 17.46875 -41.578125 C 17.882812 -41.578125 18.316406 -41.523438 18.765625 -41.421875 C 17.265625 -41.640625 15.972656 -41.289062 14.890625 -40.375 C 13.816406 -39.46875 13.28125 -38.097656 13.28125 -36.265625 C 13.28125 -34.773438 13.75 -33.394531 14.6875 -32.125 C 15.632812 -30.851562 16.828125 -29.609375 18.265625 -28.390625 C 19.703125 -27.171875 21.265625 -25.9375 22.953125 -24.6875 C 24.640625 -23.445312 26.226562 -22.148438 27.71875 -20.796875 C 29.21875 -19.441406 30.488281 -17.972656 31.53125 -16.390625 C 32.582031 -14.816406 33.191406 -13.085938 33.359375 -11.203125 Z M 30.625 -26.96875 C 30.40625 -28.1875 30.0625 -29.554688 29.59375 -31.078125 C 29.125 -32.597656 28.457031 -34.050781 27.59375 -35.4375 C 26.738281 -36.820312 25.660156 -38.050781 24.359375 -39.125 C 23.054688 -40.207031 21.46875 -40.941406 19.59375 -41.328125 C 20.476562 -41.160156 21.289062 -40.96875 22.03125 -40.75 C 22.78125 -40.53125 23.488281 -40.304688 24.15625 -40.078125 C 24.820312 -39.859375 25.472656 -39.691406 26.109375 -39.578125 C 26.742188 -39.472656 27.421875 -39.453125 28.140625 -39.515625 C 28.578125 -39.566406 29.054688 -39.675781 29.578125 -39.84375 C 30.109375 -40.007812 30.457031 -40.203125 30.625 -40.421875 Z M 30.625 -26.96875 "/></g></g></g></svg>