<svg xmlns="http://www.w3.org/2000/svg" xmlns:xlink="http://www.w3.org/1999/xlink" width="940" zoomAndPan="magnify" viewBox="0 0 705 591.000005" height="788" preserveAspectRatio="xMidYMid meet" version="1.0"><defs><clipPath id="96abddc615"><path d="M 285 164 L 411 164 L 411 425.929688 L 285 425.929688 Z M 285 164 " clip-rule="nonzero"/></clipPath></defs><path fill="#ed1c24" d="M 391.046875 402.777344 L 391.046875 372.28125 L 305.347656 372.28125 L 305.347656 402.777344 L 391.046875 402.777344 " fill-opacity="1" fill-rule="nonzero"/><g clip-path="url(#96abddc615)"><path fill="#393536" d="M 320.617188 416.296875 L 296.089844 416.296875 L 296.089844 200.476562 L 315.882812 200.476562 C 318.675781 200.476562 320.9375 198.207031 320.9375 195.414062 L 320.9375 174.257812 L 375.457031 174.257812 L 375.457031 195.414062 C 375.457031 198.207031 377.722656 200.476562 380.511719 200.476562 L 400.300781 200.476562 L 400.300781 416.296875 Z M 291.035156 426.414062 L 405.359375 426.414062 C 408.152344 426.414062 410.414062 424.152344 410.414062 421.359375 L 410.414062 195.414062 C 410.414062 192.617188 408.152344 190.355469 405.359375 190.355469 L 385.566406 190.355469 L 385.566406 169.195312 C 385.566406 166.398438 383.304688 164.136719 380.511719 164.136719 L 315.882812 164.136719 C 313.09375 164.136719 310.824219 166.398438 310.824219 169.195312 L 310.824219 190.355469 L 291.035156 190.355469 C 288.246094 190.355469 285.980469 192.617188 285.980469 195.414062 L 285.980469 421.359375 C 285.980469 424.152344 288.246094 426.414062 291.035156 426.414062 " fill-opacity="1" fill-rule="nonzero"/></g></svg>