<svg xmlns="http://www.w3.org/2000/svg" xmlns:xlink="http://www.w3.org/1999/xlink" width="940" zoomAndPan="magnify" viewBox="0 0 705 591.000005" height="788" preserveAspectRatio="xMidYMid meet" version="1.0"><defs><clipPath id="a68daa9a69"><path d="M 278.851562 164 L 404 164 L 404 425.929688 L 278.851562 425.929688 Z M 278.851562 164 " clip-rule="nonzero"/></clipPath></defs><path fill="#ed1c24" d="M 383.910156 402.777344 L 383.910156 372.28125 L 298.214844 372.28125 L 298.214844 402.777344 L 383.910156 402.777344 " fill-opacity="1" fill-rule="nonzero"/><path fill="#f14624" d="M 383.910156 364.652344 L 383.910156 334.160156 L 298.214844 334.160156 L 298.214844 364.652344 L 383.910156 364.652344 " fill-opacity="1" fill-rule="nonzero"/><path fill="#f9a72b" d="M 383.910156 326.53125 L 383.910156 296.039062 L 298.214844 296.039062 L 298.214844 326.53125 L 383.910156 326.53125 " fill-opacity="1" fill-rule="nonzero"/><path fill="#cce310" d="M 383.910156 288.414062 L 383.910156 257.914062 L 298.214844 257.914062 L 298.214844 288.414062 L 383.910156 288.414062 " fill-opacity="1" fill-rule="nonzero"/><path fill="#cce310" d="M 383.910156 250.183594 L 383.910156 219.683594 L 298.214844 219.683594 L 298.214844 250.183594 L 383.910156 250.183594 " fill-opacity="1" fill-rule="nonzero"/><g clip-path="url(#a68daa9a69)"><path fill="#393536" d="M 313.480469 416.296875 L 288.957031 416.296875 L 288.957031 200.476562 L 308.746094 200.476562 C 311.539062 200.476562 313.800781 198.207031 313.800781 195.414062 L 313.800781 174.257812 L 368.320312 174.257812 L 368.320312 195.414062 C 368.320312 198.207031 370.585938 200.476562 373.375 200.476562 L 393.164062 200.476562 L 393.164062 416.296875 Z M 283.898438 426.414062 L 398.222656 426.414062 C 401.011719 426.414062 403.277344 424.152344 403.277344 421.359375 L 403.277344 195.414062 C 403.277344 192.617188 401.011719 190.355469 398.222656 190.355469 L 378.429688 190.355469 L 378.429688 169.195312 C 378.429688 166.398438 376.167969 164.136719 373.375 164.136719 L 308.746094 164.136719 C 305.953125 164.136719 303.6875 166.398438 303.6875 169.195312 L 303.6875 190.355469 L 283.898438 190.355469 C 281.109375 190.355469 278.84375 192.617188 278.84375 195.414062 L 278.84375 421.359375 C 278.84375 424.152344 281.109375 426.414062 283.898438 426.414062 " fill-opacity="1" fill-rule="nonzero"/></g></svg>