<svg xmlns="http://www.w3.org/2000/svg" xmlns:xlink="http://www.w3.org/1999/xlink" width="500" zoomAndPan="magnify" viewBox="0 0 375 374.999991" height="500" preserveAspectRatio="xMidYMid meet" version="1.0"><defs><g/><clipPath id="770a4b5fd6"><path d="M 0 281.25 L 375 281.25 L 375 375 L 0 375 Z M 0 281.25 " clip-rule="nonzero"/></clipPath><clipPath id="9a7f829029"><path d="M -21.128906 281.25 L 387.679688 281.25 C 392.253906 281.25 396.640625 283.066406 399.875 286.300781 C 403.109375 289.539062 404.929688 293.925781 404.929688 298.5 L 404.929688 376.5 C 404.929688 381.074219 403.109375 385.460938 399.875 388.699219 C 396.640625 391.933594 392.253906 393.75 387.679688 393.75 L -21.128906 393.75 C -25.703125 393.75 -30.089844 391.933594 -33.324219 388.699219 C -36.558594 385.460938 -38.378906 381.074219 -38.378906 376.5 L -38.378906 298.5 C -38.378906 293.925781 -36.558594 289.539062 -33.324219 286.300781 C -30.089844 283.066406 -25.703125 281.25 -21.128906 281.25 Z M -21.128906 281.25 " clip-rule="nonzero"/></clipPath></defs><rect x="-37.5" width="450" fill="#ffffff" y="-37.499999" height="449.999989" fill-opacity="1"/><rect x="-37.5" width="450" fill="#ffffff" y="-37.499999" height="449.999989" fill-opacity="1"/><g clip-path="url(#770a4b5fd6)"><g clip-path="url(#9a7f829029)"><path fill="#a3a3cd" d="M -38.378906 281.25 L 404.929688 281.25 L 404.929688 393.75 L -38.378906 393.75 Z M -38.378906 281.25 " fill-opacity="1" fill-rule="nonzero"/></g></g><path fill="#ee3e54" d="M 56.441406 60.777344 C 55.976562 60.777344 55.515625 60.824219 55.058594 60.914062 C 54.605469 61.003906 54.160156 61.140625 53.730469 61.316406 C 53.300781 61.496094 52.890625 61.714844 52.503906 61.972656 C 52.117188 62.230469 51.761719 62.527344 51.429688 62.855469 C 51.101562 63.183594 50.808594 63.542969 50.550781 63.929688 C 50.289062 64.316406 50.074219 64.722656 49.894531 65.152344 C 49.714844 65.585938 49.582031 66.027344 49.492188 66.484375 C 49.398438 66.941406 49.355469 67.402344 49.355469 67.867188 C 49.355469 68.332031 49.398438 68.792969 49.492188 69.25 C 49.582031 69.707031 49.714844 70.148438 49.894531 70.578125 C 50.074219 71.007812 50.289062 71.417969 50.550781 71.804688 C 50.808594 72.191406 51.101562 72.550781 51.429688 72.878906 C 51.761719 73.207031 52.117188 73.5 52.503906 73.761719 C 52.890625 74.019531 53.300781 74.238281 53.730469 74.414062 C 54.160156 74.59375 54.605469 74.726562 55.058594 74.820312 C 55.515625 74.910156 55.976562 74.953125 56.441406 74.953125 C 56.910156 74.953125 57.371094 74.910156 57.824219 74.820312 C 58.28125 74.726562 58.726562 74.59375 59.15625 74.414062 C 59.585938 74.238281 59.992188 74.019531 60.382812 73.761719 C 60.769531 73.5 61.125 73.207031 61.453125 72.878906 C 61.785156 72.550781 62.078125 72.191406 62.335938 71.804688 C 62.59375 71.417969 62.8125 71.007812 62.992188 70.578125 C 63.167969 70.148438 63.304688 69.707031 63.394531 69.25 C 63.484375 68.792969 63.53125 68.332031 63.53125 67.867188 C 63.53125 67.402344 63.484375 66.941406 63.394531 66.484375 C 63.304688 66.027344 63.167969 65.585938 62.992188 65.152344 C 62.8125 64.722656 62.59375 64.316406 62.335938 63.929688 C 62.078125 63.542969 61.785156 63.183594 61.453125 62.855469 C 61.125 62.527344 60.769531 62.230469 60.382812 61.972656 C 59.992188 61.714844 59.585938 61.496094 59.15625 61.316406 C 58.726562 61.140625 58.28125 61.003906 57.824219 60.914062 C 57.371094 60.824219 56.910156 60.777344 56.441406 60.777344 Z M 56.441406 60.777344 " fill-opacity="1" fill-rule="nonzero"/><path fill="#f1bc19" d="M 283.261719 7.617188 C 282.792969 7.617188 282.339844 7.707031 281.90625 7.886719 C 281.472656 8.066406 281.089844 8.324219 280.757812 8.65625 C 280.425781 8.988281 280.167969 9.371094 279.988281 9.804688 C 279.808594 10.238281 279.71875 10.691406 279.71875 11.160156 C 279.71875 11.632812 279.808594 12.082031 279.988281 12.519531 C 280.167969 12.953125 280.425781 13.335938 280.757812 13.667969 C 281.089844 14 281.472656 14.257812 281.90625 14.4375 C 282.339844 14.617188 282.792969 14.707031 283.261719 14.707031 C 283.734375 14.707031 284.183594 14.617188 284.617188 14.4375 C 285.054688 14.257812 285.4375 14 285.769531 13.667969 C 286.101562 13.335938 286.355469 12.953125 286.535156 12.519531 C 286.71875 12.082031 286.808594 11.632812 286.808594 11.160156 C 286.808594 10.691406 286.71875 10.238281 286.535156 9.804688 C 286.355469 9.371094 286.101562 8.988281 285.769531 8.65625 C 285.4375 8.324219 285.054688 8.066406 284.617188 7.886719 C 284.183594 7.707031 283.734375 7.617188 283.261719 7.617188 Z M 283.261719 7.617188 " fill-opacity="1" fill-rule="nonzero"/><path fill="#fce0a2" d="M 187.574219 11.160156 C 185.425781 11.160156 183.28125 11.214844 181.140625 11.320312 C 178.996094 11.425781 176.855469 11.582031 174.71875 11.792969 C 172.585938 12.003906 170.457031 12.265625 168.332031 12.582031 C 166.210938 12.894531 164.097656 13.261719 161.992188 13.679688 C 159.886719 14.101562 157.792969 14.570312 155.710938 15.089844 C 153.628906 15.613281 151.5625 16.183594 149.507812 16.808594 C 147.453125 17.429688 145.417969 18.105469 143.398438 18.828125 C 141.375 19.550781 139.375 20.320312 137.390625 21.144531 C 135.410156 21.964844 133.449219 22.835938 131.507812 23.75 C 129.566406 24.667969 127.652344 25.632812 125.757812 26.644531 C 123.867188 27.65625 122 28.714844 120.160156 29.816406 C 118.316406 30.921875 116.503906 32.070312 114.722656 33.261719 C 112.9375 34.453125 111.183594 35.6875 109.460938 36.96875 C 107.734375 38.246094 106.042969 39.566406 104.386719 40.925781 C 102.726562 42.289062 101.101562 43.691406 99.511719 45.132812 C 97.921875 46.570312 96.367188 48.050781 94.851562 49.570312 C 93.332031 51.085938 91.851562 52.640625 90.410156 54.230469 C 88.972656 55.820312 87.570312 57.445312 86.207031 59.105469 C 84.847656 60.761719 83.527344 62.453125 82.25 64.179688 C 80.96875 65.902344 79.734375 67.65625 78.542969 69.441406 C 77.351562 71.222656 76.203125 73.035156 75.097656 74.878906 C 73.996094 76.71875 72.9375 78.585938 71.925781 80.476562 C 70.914062 82.371094 69.949219 84.285156 69.03125 86.226562 C 68.117188 88.167969 67.246094 90.128906 66.425781 92.109375 C 65.601562 94.09375 64.832031 96.09375 64.109375 98.117188 C 63.386719 100.136719 62.710938 102.171875 62.089844 104.226562 C 61.464844 106.28125 60.894531 108.347656 60.371094 110.429688 C 59.851562 112.511719 59.382812 114.605469 58.960938 116.710938 C 58.542969 118.816406 58.175781 120.929688 57.863281 123.050781 C 57.546875 125.175781 57.285156 127.304688 57.074219 129.4375 C 56.863281 131.574219 56.707031 133.714844 56.601562 135.859375 C 56.496094 138 56.441406 140.144531 56.441406 142.292969 C 56.441406 144.4375 56.496094 146.582031 56.601562 148.726562 C 56.707031 150.871094 56.863281 153.007812 57.074219 155.144531 C 57.285156 157.28125 57.546875 159.410156 57.863281 161.53125 C 58.175781 163.65625 58.542969 165.769531 58.960938 167.875 C 59.382812 169.980469 59.851562 172.070312 60.371094 174.152344 C 60.894531 176.234375 61.464844 178.304688 62.089844 180.355469 C 62.710938 182.410156 63.386719 184.449219 64.109375 186.46875 C 64.832031 188.488281 65.601562 190.492188 66.425781 192.472656 C 67.246094 194.457031 68.117188 196.417969 69.03125 198.355469 C 69.949219 200.296875 70.914062 202.214844 71.925781 204.105469 C 72.9375 206 73.996094 207.867188 75.097656 209.707031 C 76.203125 211.546875 77.351562 213.359375 78.542969 215.144531 C 79.734375 216.929688 80.96875 218.683594 82.25 220.40625 C 83.527344 222.128906 84.847656 223.820312 86.207031 225.480469 C 87.570312 227.140625 88.972656 228.761719 90.410156 230.355469 C 91.851562 231.945312 93.332031 233.496094 94.851562 235.015625 C 96.367188 236.53125 97.921875 238.011719 99.511719 239.453125 C 101.101562 240.894531 102.726562 242.296875 104.386719 243.65625 C 106.042969 245.019531 107.734375 246.339844 109.460938 247.617188 C 111.183594 248.894531 112.9375 250.128906 114.722656 251.324219 C 116.503906 252.515625 118.316406 253.664062 120.160156 254.765625 C 122 255.871094 123.867188 256.925781 125.757812 257.9375 C 127.652344 258.949219 129.566406 259.914062 131.507812 260.832031 C 133.449219 261.75 135.410156 262.621094 137.390625 263.441406 C 139.375 264.261719 141.375 265.035156 143.398438 265.757812 C 145.417969 266.480469 147.453125 267.152344 149.507812 267.777344 C 151.5625 268.398438 153.628906 268.972656 155.710938 269.492188 C 157.792969 270.015625 159.886719 270.484375 161.992188 270.902344 C 164.097656 271.320312 166.210938 271.6875 168.332031 272.003906 C 170.457031 272.316406 172.585938 272.582031 174.71875 272.789062 C 176.855469 273 178.996094 273.160156 181.140625 273.265625 C 183.28125 273.371094 185.425781 273.421875 187.574219 273.421875 C 189.71875 273.421875 191.863281 273.371094 194.007812 273.265625 C 196.152344 273.160156 198.289062 273 200.425781 272.789062 C 202.5625 272.582031 204.691406 272.316406 206.8125 272.003906 C 208.9375 271.6875 211.050781 271.320312 213.15625 270.902344 C 215.261719 270.484375 217.351562 270.015625 219.433594 269.492188 C 221.515625 268.972656 223.585938 268.398438 225.636719 267.777344 C 227.691406 267.152344 229.730469 266.480469 231.75 265.757812 C 233.769531 265.035156 235.773438 264.261719 237.753906 263.441406 C 239.738281 262.621094 241.699219 261.75 243.636719 260.832031 C 245.578125 259.914062 247.496094 258.949219 249.386719 257.9375 C 251.28125 256.925781 253.148438 255.871094 254.988281 254.765625 C 256.828125 253.664062 258.640625 252.515625 260.425781 251.324219 C 262.210938 250.128906 263.964844 248.894531 265.6875 247.617188 C 267.410156 246.339844 269.101562 245.019531 270.761719 243.65625 C 272.421875 242.296875 274.042969 240.894531 275.636719 239.453125 C 277.226562 238.011719 278.777344 236.53125 280.296875 235.015625 C 281.8125 233.496094 283.292969 231.945312 284.734375 230.355469 C 286.175781 228.761719 287.578125 227.140625 288.9375 225.480469 C 290.300781 223.820312 291.621094 222.128906 292.898438 220.40625 C 294.175781 218.683594 295.410156 216.929688 296.605469 215.144531 C 297.796875 213.359375 298.945312 211.546875 300.046875 209.707031 C 301.152344 207.867188 302.207031 206 303.21875 204.105469 C 304.230469 202.214844 305.195312 200.296875 306.113281 198.355469 C 307.03125 196.417969 307.902344 194.457031 308.722656 192.472656 C 309.542969 190.492188 310.316406 188.488281 311.039062 186.46875 C 311.761719 184.449219 312.433594 182.410156 313.058594 180.355469 C 313.679688 178.304688 314.253906 176.234375 314.773438 174.152344 C 315.296875 172.070312 315.765625 169.980469 316.183594 167.875 C 316.601562 165.769531 316.96875 163.65625 317.285156 161.53125 C 317.597656 159.410156 317.863281 157.28125 318.070312 155.144531 C 318.28125 153.007812 318.441406 150.871094 318.546875 148.726562 C 318.652344 146.582031 318.703125 144.4375 318.703125 142.292969 C 318.703125 140.144531 318.652344 138 318.546875 135.859375 C 318.441406 133.714844 318.28125 131.574219 318.070312 129.4375 C 317.863281 127.304688 317.597656 125.175781 317.285156 123.050781 C 316.96875 120.929688 316.601562 118.816406 316.183594 116.710938 C 315.765625 114.605469 315.296875 112.511719 314.773438 110.429688 C 314.253906 108.347656 313.679688 106.28125 313.058594 104.226562 C 312.433594 102.171875 311.761719 100.136719 311.039062 98.117188 C 310.316406 96.09375 309.542969 94.09375 308.722656 92.109375 C 307.902344 90.128906 307.03125 88.167969 306.113281 86.226562 C 305.195312 84.285156 304.230469 82.371094 303.21875 80.476562 C 302.207031 78.585938 301.152344 76.71875 300.046875 74.878906 C 298.945312 73.035156 297.796875 71.222656 296.605469 69.441406 C 295.410156 67.65625 294.175781 65.902344 292.898438 64.179688 C 291.621094 62.453125 290.300781 60.761719 288.9375 59.105469 C 287.578125 57.445312 286.175781 55.820312 284.734375 54.230469 C 283.292969 52.640625 281.8125 51.085938 280.296875 49.570312 C 278.777344 48.050781 277.226562 46.570312 275.636719 45.132812 C 274.042969 43.691406 272.421875 42.289062 270.761719 40.925781 C 269.101562 39.566406 267.410156 38.246094 265.6875 36.96875 C 263.964844 35.6875 262.210938 34.453125 260.425781 33.261719 C 258.640625 32.070312 256.828125 30.921875 254.988281 29.816406 C 253.148438 28.714844 251.28125 27.65625 249.386719 26.644531 C 247.496094 25.632812 245.578125 24.667969 243.636719 23.75 C 241.699219 22.835938 239.738281 21.964844 237.753906 21.144531 C 235.773438 20.320312 233.769531 19.550781 231.75 18.828125 C 229.730469 18.105469 227.691406 17.429688 225.636719 16.808594 C 223.585938 16.183594 221.515625 15.613281 219.433594 15.089844 C 217.351562 14.570312 215.261719 14.101562 213.15625 13.679688 C 211.050781 13.261719 208.9375 12.894531 206.8125 12.582031 C 204.691406 12.265625 202.5625 12.003906 200.425781 11.792969 C 198.289062 11.582031 196.152344 11.425781 194.007812 11.320312 C 191.863281 11.214844 189.71875 11.160156 187.574219 11.160156 Z M 187.574219 11.160156 " fill-opacity="1" fill-rule="nonzero"/><path fill="#f1bc19" d="M 304.527344 4.074219 C 303.597656 4.074219 302.675781 4.164062 301.761719 4.347656 C 300.847656 4.527344 299.960938 4.796875 299.101562 5.152344 C 298.242188 5.507812 297.425781 5.945312 296.652344 6.460938 C 295.878906 6.980469 295.160156 7.566406 294.503906 8.226562 C 293.84375 8.882812 293.257812 9.601562 292.738281 10.375 C 292.222656 11.148438 291.785156 11.964844 291.429688 12.824219 C 291.074219 13.683594 290.804688 14.570312 290.625 15.484375 C 290.441406 16.398438 290.351562 17.320312 290.351562 18.25 C 290.351562 19.179688 290.441406 20.101562 290.625 21.015625 C 290.804688 21.929688 291.074219 22.816406 291.429688 23.675781 C 291.785156 24.535156 292.222656 25.351562 292.738281 26.125 C 293.257812 26.898438 293.84375 27.617188 294.503906 28.273438 C 295.160156 28.933594 295.878906 29.519531 296.652344 30.035156 C 297.425781 30.554688 298.242188 30.992188 299.101562 31.347656 C 299.960938 31.703125 300.847656 31.972656 301.761719 32.152344 C 302.675781 32.335938 303.597656 32.425781 304.527344 32.425781 C 305.457031 32.425781 306.378906 32.335938 307.292969 32.152344 C 308.207031 31.972656 309.09375 31.703125 309.953125 31.347656 C 310.8125 30.992188 311.628906 30.554688 312.402344 30.035156 C 313.175781 29.519531 313.894531 28.933594 314.550781 28.273438 C 315.210938 27.617188 315.796875 26.898438 316.3125 26.125 C 316.832031 25.351562 317.269531 24.535156 317.625 23.675781 C 317.980469 22.816406 318.25 21.929688 318.429688 21.015625 C 318.613281 20.101562 318.703125 19.179688 318.703125 18.25 C 318.703125 17.320312 318.613281 16.398438 318.429688 15.484375 C 318.25 14.570312 317.980469 13.683594 317.625 12.824219 C 317.269531 11.964844 316.832031 11.148438 316.3125 10.375 C 315.796875 9.601562 315.210938 8.882812 314.550781 8.226562 C 313.894531 7.566406 313.175781 6.980469 312.402344 6.460938 C 311.628906 5.945312 310.8125 5.507812 309.953125 5.152344 C 309.09375 4.796875 308.207031 4.527344 307.292969 4.347656 C 306.378906 4.164062 305.457031 4.074219 304.527344 4.074219 Z M 304.527344 4.074219 " fill-opacity="1" fill-rule="nonzero"/><path fill="#ee3e54" d="M 318.703125 43.058594 C 318.238281 43.058594 317.777344 43.105469 317.320312 43.195312 C 316.863281 43.285156 316.421875 43.417969 315.992188 43.597656 C 315.5625 43.777344 315.152344 43.996094 314.765625 44.253906 C 314.378906 44.511719 314.019531 44.804688 313.691406 45.132812 C 313.363281 45.464844 313.070312 45.820312 312.808594 46.207031 C 312.550781 46.59375 312.332031 47.003906 312.15625 47.433594 C 311.976562 47.863281 311.84375 48.308594 311.75 48.761719 C 311.660156 49.21875 311.617188 49.679688 311.617188 50.144531 C 311.617188 50.613281 311.660156 51.074219 311.75 51.527344 C 311.84375 51.984375 311.976562 52.429688 312.15625 52.859375 C 312.332031 53.289062 312.550781 53.699219 312.808594 54.085938 C 313.070312 54.472656 313.363281 54.828125 313.691406 55.160156 C 314.019531 55.488281 314.378906 55.78125 314.765625 56.039062 C 315.152344 56.296875 315.5625 56.515625 315.992188 56.695312 C 316.421875 56.875 316.863281 57.007812 317.320312 57.097656 C 317.777344 57.1875 318.238281 57.234375 318.703125 57.234375 C 319.167969 57.234375 319.628906 57.1875 320.085938 57.097656 C 320.542969 57.007812 320.984375 56.875 321.414062 56.695312 C 321.847656 56.515625 322.253906 56.296875 322.640625 56.039062 C 323.027344 55.78125 323.386719 55.488281 323.714844 55.160156 C 324.042969 54.828125 324.339844 54.472656 324.597656 54.085938 C 324.855469 53.699219 325.074219 53.289062 325.253906 52.859375 C 325.429688 52.429688 325.566406 51.984375 325.65625 51.527344 C 325.746094 51.074219 325.792969 50.613281 325.792969 50.144531 C 325.792969 49.679688 325.746094 49.21875 325.65625 48.761719 C 325.566406 48.308594 325.429688 47.863281 325.253906 47.433594 C 325.074219 47.003906 324.855469 46.59375 324.597656 46.207031 C 324.339844 45.820312 324.042969 45.464844 323.714844 45.132812 C 323.386719 44.804688 323.027344 44.511719 322.640625 44.253906 C 322.253906 43.996094 321.847656 43.777344 321.414062 43.597656 C 320.984375 43.417969 320.542969 43.285156 320.085938 43.195312 C 319.628906 43.105469 319.167969 43.058594 318.703125 43.058594 Z M 318.703125 43.058594 " fill-opacity="1" fill-rule="nonzero"/><path fill="#fbcd59" d="M 297.4375 227.347656 C 296.972656 227.347656 296.511719 227.394531 296.054688 227.484375 C 295.601562 227.578125 295.15625 227.710938 294.726562 227.890625 C 294.296875 228.066406 293.886719 228.285156 293.5 228.542969 C 293.113281 228.800781 292.757812 229.097656 292.425781 229.425781 C 292.097656 229.753906 291.804688 230.113281 291.546875 230.5 C 291.285156 230.886719 291.070312 231.296875 290.890625 231.726562 C 290.710938 232.15625 290.578125 232.597656 290.488281 233.054688 C 290.394531 233.511719 290.351562 233.972656 290.351562 234.4375 C 290.351562 234.902344 290.394531 235.363281 290.488281 235.820312 C 290.578125 236.277344 290.710938 236.71875 290.890625 237.148438 C 291.070312 237.578125 291.285156 237.988281 291.546875 238.375 C 291.804688 238.761719 292.097656 239.121094 292.425781 239.449219 C 292.757812 239.777344 293.113281 240.074219 293.5 240.332031 C 293.886719 240.589844 294.296875 240.808594 294.726562 240.984375 C 295.15625 241.164062 295.601562 241.296875 296.054688 241.390625 C 296.511719 241.480469 296.972656 241.527344 297.4375 241.527344 C 297.90625 241.527344 298.367188 241.480469 298.820312 241.390625 C 299.277344 241.296875 299.722656 241.164062 300.152344 240.984375 C 300.582031 240.808594 300.988281 240.589844 301.378906 240.332031 C 301.765625 240.074219 302.121094 239.777344 302.449219 239.449219 C 302.78125 239.121094 303.074219 238.761719 303.332031 238.375 C 303.589844 237.988281 303.808594 237.578125 303.988281 237.148438 C 304.164062 236.71875 304.300781 236.277344 304.390625 235.820312 C 304.480469 235.363281 304.527344 234.902344 304.527344 234.4375 C 304.527344 233.972656 304.480469 233.511719 304.390625 233.054688 C 304.300781 232.597656 304.164062 232.15625 303.988281 231.726562 C 303.808594 231.296875 303.589844 230.886719 303.332031 230.5 C 303.074219 230.113281 302.78125 229.753906 302.449219 229.425781 C 302.121094 229.097656 301.765625 228.800781 301.378906 228.542969 C 300.988281 228.285156 300.582031 228.066406 300.152344 227.890625 C 299.722656 227.710938 299.277344 227.578125 298.820312 227.484375 C 298.367188 227.394531 297.90625 227.347656 297.4375 227.347656 Z M 63.53125 174.1875 C 62.601562 174.1875 61.679688 174.28125 60.765625 174.460938 C 59.851562 174.640625 58.964844 174.910156 58.105469 175.269531 C 57.246094 175.625 56.429688 176.058594 55.65625 176.578125 C 54.882812 177.09375 54.164062 177.683594 53.507812 178.339844 C 52.847656 179 52.261719 179.714844 51.742188 180.488281 C 51.226562 181.261719 50.789062 182.078125 50.433594 182.941406 C 50.078125 183.800781 49.808594 184.6875 49.628906 185.597656 C 49.445312 186.511719 49.355469 187.433594 49.355469 188.363281 C 49.355469 189.296875 49.445312 190.21875 49.628906 191.128906 C 49.808594 192.042969 50.078125 192.929688 50.433594 193.789062 C 50.789062 194.648438 51.226562 195.464844 51.742188 196.242188 C 52.261719 197.015625 52.847656 197.730469 53.507812 198.390625 C 54.164062 199.046875 54.882812 199.632812 55.65625 200.152344 C 56.429688 200.667969 57.246094 201.105469 58.105469 201.460938 C 58.964844 201.816406 59.851562 202.085938 60.765625 202.269531 C 61.679688 202.449219 62.601562 202.539062 63.53125 202.539062 C 64.460938 202.539062 65.382812 202.449219 66.296875 202.269531 C 67.210938 202.085938 68.097656 201.816406 68.957031 201.460938 C 69.816406 201.105469 70.632812 200.667969 71.40625 200.152344 C 72.179688 199.632812 72.898438 199.046875 73.554688 198.390625 C 74.214844 197.730469 74.800781 197.015625 75.316406 196.242188 C 75.835938 195.464844 76.273438 194.648438 76.628906 193.789062 C 76.984375 192.929688 77.253906 192.042969 77.433594 191.128906 C 77.617188 190.21875 77.707031 189.296875 77.707031 188.363281 C 77.707031 187.433594 77.617188 186.511719 77.433594 185.597656 C 77.253906 184.6875 76.984375 183.800781 76.628906 182.941406 C 76.273438 182.078125 75.835938 181.261719 75.316406 180.488281 C 74.800781 179.714844 74.214844 179 73.554688 178.339844 C 72.898438 177.683594 72.179688 177.09375 71.40625 176.578125 C 70.632812 176.058594 69.816406 175.625 68.957031 175.269531 C 68.097656 174.910156 67.210938 174.640625 66.296875 174.460938 C 65.382812 174.28125 64.460938 174.1875 63.53125 174.1875 Z M 63.53125 174.1875 " fill-opacity="1" fill-rule="nonzero"/><path fill="#ee3e54" d="M 98.972656 266.335938 C 98.507812 266.335938 98.046875 266.378906 97.589844 266.46875 C 97.132812 266.5625 96.6875 266.695312 96.257812 266.875 C 95.828125 267.050781 95.421875 267.269531 95.035156 267.527344 C 94.648438 267.789062 94.289062 268.082031 93.960938 268.410156 C 93.628906 268.738281 93.335938 269.097656 93.078125 269.484375 C 92.820312 269.871094 92.601562 270.28125 92.421875 270.710938 C 92.246094 271.140625 92.109375 271.582031 92.019531 272.039062 C 91.929688 272.496094 91.882812 272.957031 91.882812 273.421875 C 91.882812 273.886719 91.929688 274.347656 92.019531 274.804688 C 92.109375 275.261719 92.246094 275.703125 92.421875 276.132812 C 92.601562 276.566406 92.820312 276.972656 93.078125 277.359375 C 93.335938 277.746094 93.628906 278.105469 93.960938 278.433594 C 94.289062 278.761719 94.648438 279.058594 95.035156 279.316406 C 95.421875 279.574219 95.828125 279.792969 96.257812 279.972656 C 96.6875 280.148438 97.132812 280.285156 97.589844 280.375 C 98.046875 280.464844 98.507812 280.511719 98.972656 280.511719 C 99.4375 280.511719 99.898438 280.464844 100.355469 280.375 C 100.8125 280.285156 101.253906 280.148438 101.683594 279.972656 C 102.113281 279.792969 102.523438 279.574219 102.910156 279.316406 C 103.296875 279.058594 103.65625 278.761719 103.984375 278.433594 C 104.3125 278.105469 104.605469 277.746094 104.863281 277.359375 C 105.125 276.972656 105.34375 276.566406 105.519531 276.132812 C 105.699219 275.703125 105.832031 275.261719 105.921875 274.804688 C 106.015625 274.347656 106.058594 273.886719 106.058594 273.421875 C 106.058594 272.957031 106.015625 272.496094 105.921875 272.039062 C 105.832031 271.582031 105.699219 271.140625 105.519531 270.710938 C 105.34375 270.28125 105.125 269.871094 104.863281 269.484375 C 104.605469 269.097656 104.3125 268.738281 103.984375 268.410156 C 103.65625 268.082031 103.296875 267.789062 102.910156 267.527344 C 102.523438 267.269531 102.113281 267.050781 101.683594 266.875 C 101.253906 266.695312 100.8125 266.5625 100.355469 266.46875 C 99.898438 266.378906 99.4375 266.335938 98.972656 266.335938 Z M 98.972656 266.335938 " fill-opacity="1" fill-rule="nonzero"/><path fill="#ffffff" d="M 75.933594 145.835938 C 75.351562 145.835938 74.777344 145.894531 74.207031 146.007812 C 73.636719 146.121094 73.082031 146.289062 72.542969 146.511719 C 72.007812 146.734375 71.496094 147.007812 71.011719 147.328125 C 70.527344 147.652344 70.082031 148.019531 69.671875 148.429688 C 69.257812 148.84375 68.890625 149.289062 68.566406 149.773438 C 68.246094 150.257812 67.972656 150.769531 67.75 151.304688 C 67.527344 151.84375 67.359375 152.398438 67.246094 152.96875 C 67.132812 153.539062 67.074219 154.113281 67.074219 154.695312 C 67.074219 155.277344 67.132812 155.855469 67.246094 156.425781 C 67.359375 156.996094 67.527344 157.550781 67.75 158.085938 C 67.972656 158.625 68.246094 159.136719 68.566406 159.617188 C 68.890625 160.101562 69.257812 160.550781 69.671875 160.960938 C 70.082031 161.371094 70.527344 161.738281 71.011719 162.0625 C 71.496094 162.386719 72.007812 162.660156 72.542969 162.882812 C 73.082031 163.105469 73.636719 163.273438 74.207031 163.386719 C 74.777344 163.5 75.351562 163.554688 75.933594 163.554688 C 76.515625 163.554688 77.09375 163.5 77.664062 163.386719 C 78.234375 163.273438 78.789062 163.105469 79.324219 162.882812 C 79.863281 162.660156 80.375 162.386719 80.859375 162.0625 C 81.339844 161.738281 81.789062 161.371094 82.199219 160.960938 C 82.613281 160.550781 82.980469 160.101562 83.300781 159.617188 C 83.625 159.136719 83.898438 158.625 84.121094 158.085938 C 84.34375 157.550781 84.511719 156.996094 84.625 156.425781 C 84.738281 155.855469 84.796875 155.277344 84.796875 154.695312 C 84.796875 154.113281 84.738281 153.539062 84.625 152.96875 C 84.511719 152.398438 84.34375 151.84375 84.121094 151.304688 C 83.898438 150.769531 83.625 150.257812 83.300781 149.773438 C 82.980469 149.289062 82.613281 148.84375 82.199219 148.429688 C 81.789062 148.019531 81.339844 147.652344 80.859375 147.328125 C 80.375 147.007812 79.863281 146.734375 79.324219 146.511719 C 78.789062 146.289062 78.234375 146.121094 77.664062 146.007812 C 77.09375 145.894531 76.515625 145.835938 75.933594 145.835938 Z M 75.933594 145.835938 " fill-opacity="1" fill-rule="nonzero"/><path fill="#f1bc19" d="M 84.796875 198.996094 C 84.324219 198.996094 83.875 199.085938 83.4375 199.265625 C 83.003906 199.445312 82.621094 199.703125 82.289062 200.035156 C 81.957031 200.367188 81.699219 200.75 81.519531 201.183594 C 81.339844 201.617188 81.25 202.070312 81.25 202.539062 C 81.25 203.011719 81.339844 203.464844 81.519531 203.898438 C 81.699219 204.332031 81.957031 204.714844 82.289062 205.046875 C 82.621094 205.378906 83.003906 205.636719 83.4375 205.816406 C 83.875 205.996094 84.324219 206.085938 84.796875 206.085938 C 85.265625 206.085938 85.71875 205.996094 86.152344 205.816406 C 86.585938 205.636719 86.96875 205.378906 87.300781 205.046875 C 87.632812 204.714844 87.890625 204.332031 88.070312 203.898438 C 88.25 203.464844 88.339844 203.011719 88.339844 202.539062 C 88.339844 202.070312 88.25 201.617188 88.070312 201.183594 C 87.890625 200.75 87.632812 200.367188 87.300781 200.035156 C 86.96875 199.703125 86.585938 199.445312 86.152344 199.265625 C 85.71875 199.085938 85.265625 198.996094 84.796875 198.996094 Z M 84.796875 198.996094 " fill-opacity="1" fill-rule="nonzero"/><path fill="#ffffff" d="M 293.894531 82.042969 C 293.425781 82.042969 292.972656 82.132812 292.539062 82.3125 C 292.105469 82.492188 291.722656 82.75 291.390625 83.082031 C 291.054688 83.414062 290.800781 83.796875 290.621094 84.230469 C 290.441406 84.664062 290.351562 85.117188 290.351562 85.585938 C 290.351562 86.058594 290.441406 86.507812 290.621094 86.941406 C 290.800781 87.378906 291.054688 87.761719 291.390625 88.09375 C 291.722656 88.425781 292.105469 88.679688 292.539062 88.859375 C 292.972656 89.042969 293.425781 89.132812 293.894531 89.132812 C 294.363281 89.132812 294.816406 89.042969 295.25 88.859375 C 295.683594 88.679688 296.070312 88.425781 296.402344 88.09375 C 296.734375 87.761719 296.988281 87.378906 297.167969 86.941406 C 297.347656 86.507812 297.4375 86.058594 297.4375 85.585938 C 297.4375 85.117188 297.347656 84.664062 297.167969 84.230469 C 296.988281 83.796875 296.734375 83.414062 296.402344 83.082031 C 296.070312 82.75 295.683594 82.492188 295.25 82.3125 C 294.816406 82.132812 294.363281 82.042969 293.894531 82.042969 Z M 293.894531 82.042969 " fill-opacity="1" fill-rule="nonzero"/><path fill="#a3a3cd" d="M 149.28125 230.46875 C 149.253906 224.367188 149.222656 213.179688 149.300781 206.550781 C 149.359375 201.71875 146.585938 199.828125 144.160156 198.714844 C 142.515625 197.953125 140.597656 197.285156 138.570312 196.574219 C 135.707031 195.566406 132.746094 194.523438 130.769531 193.292969 C 122.058594 187.871094 116.148438 179.476562 112.707031 167.625 C 108.925781 154.59375 107.734375 140.46875 109.066406 124.433594 C 109.652344 117.355469 110.675781 109.925781 112.1875 101.722656 C 115.019531 86.332031 123.984375 75.398438 139.585938 68.300781 C 147.867188 64.535156 157.023438 62.191406 169.28125 60.710938 C 174.734375 60.046875 180.40625 59.714844 186.144531 59.714844 C 194.347656 59.714844 202.761719 60.371094 211.878906 61.710938 C 223.261719 63.394531 235.246094 65.9375 245.769531 73.117188 C 253.707031 78.53125 259.128906 86.207031 261.878906 95.9375 C 266.335938 111.714844 267.617188 129.238281 265.785156 149.523438 C 264.773438 160.695312 262.09375 170.523438 257.597656 179.554688 C 253.601562 187.578125 247.15625 193.335938 237.890625 197.167969 C 227.21875 201.578125 215.546875 202.53125 205.441406 203.074219 C 196.835938 203.542969 188.066406 203.871094 179.375 204.035156 C 175.355469 204.117188 173.960938 205.695312 172.34375 207.515625 L 171.566406 208.386719 C 166.722656 213.625 154.625 225.328125 149.28125 230.46875 Z M 149.28125 230.46875 " fill-opacity="1" fill-rule="nonzero"/><path fill="#472b29" d="M 186.148438 62.195312 C 194.230469 62.195312 202.527344 62.839844 211.515625 64.167969 C 222.605469 65.804688 234.261719 68.269531 244.375 75.167969 C 251.921875 80.316406 256.867188 87.332031 259.492188 96.613281 C 263.871094 112.097656 265.121094 129.328125 263.316406 149.296875 C 262.335938 160.160156 259.742188 169.695312 255.382812 178.453125 C 251.664062 185.914062 245.636719 191.285156 236.949219 194.875 C 226.644531 199.136719 215.214844 200.0625 205.3125 200.597656 C 196.667969 201.066406 187.925781 201.390625 179.328125 201.558594 C 174.601562 201.65625 172.605469 203.488281 170.496094 205.871094 C 170.265625 206.128906 170.023438 206.402344 169.742188 206.707031 C 165.964844 210.792969 157.691406 218.890625 151.742188 224.648438 C 151.730469 218.703125 151.726562 211.421875 151.785156 206.582031 C 151.84375 201.828125 149.6875 198.519531 145.199219 196.464844 C 143.445312 195.660156 141.386719 194.933594 139.398438 194.234375 C 136.660156 193.273438 133.828125 192.273438 132.082031 191.1875 C 123.914062 186.105469 118.359375 178.171875 115.097656 166.933594 C 111.402344 154.203125 110.238281 140.371094 111.542969 124.644531 C 112.125 117.652344 113.132812 110.304688 114.632812 102.171875 C 117.308594 87.640625 125.8125 77.296875 140.621094 70.5625 C 148.652344 66.910156 157.585938 64.632812 169.589844 63.179688 C 174.933594 62.527344 180.507812 62.195312 186.148438 62.195312 M 186.148438 57.234375 C 180.441406 57.234375 174.722656 57.554688 168.988281 58.25 C 158.464844 59.523438 148.25 61.636719 138.5625 66.042969 C 123.199219 73.03125 112.878906 84.265625 109.75 101.269531 C 108.351562 108.859375 107.234375 116.539062 106.59375 124.226562 C 105.363281 139.097656 106.136719 153.886719 110.328125 168.3125 C 113.582031 179.53125 119.347656 189.101562 129.457031 195.394531 C 133.109375 197.667969 139.210938 199.167969 143.128906 200.96875 C 145.613281 202.105469 146.855469 203.503906 146.820312 206.515625 C 146.707031 216.058594 146.820312 234.757812 146.820312 234.757812 L 148.390625 234.757812 C 148.390625 234.757812 166.996094 216.984375 173.386719 210.070312 C 175.523438 207.761719 176.015625 206.585938 179.425781 206.515625 C 188.148438 206.339844 196.871094 206.019531 205.578125 205.546875 C 216.992188 204.929688 228.242188 203.835938 238.839844 199.453125 C 248.015625 195.660156 255.300781 189.730469 259.820312 180.65625 C 264.675781 170.910156 267.277344 160.570312 268.253906 149.738281 C 269.914062 131.34375 269.316406 113.128906 264.261719 95.253906 C 261.417969 85.195312 255.855469 76.988281 247.167969 71.058594 C 236.621094 63.867188 224.53125 61.066406 212.238281 59.25 C 203.570312 57.980469 194.875 57.234375 186.148438 57.234375 Z M 186.148438 57.234375 " fill-opacity="1" fill-rule="nonzero"/><path fill="#a3a3cd" d="M 139.566406 184.777344 C 142.582031 186.621094 147.621094 187.839844 150.855469 189.300781 " fill-opacity="1" fill-rule="nonzero"/><path fill="#472b29" d="M 150.855469 191.074219 C 150.617188 191.074219 150.363281 191.023438 150.128906 190.917969 C 148.894531 190.359375 147.386719 189.839844 145.835938 189.304688 C 143.277344 188.421875 140.632812 187.507812 138.644531 186.292969 C 137.808594 185.777344 137.546875 184.691406 138.054688 183.851562 C 138.570312 183.019531 139.660156 182.746094 140.492188 183.265625 C 142.152344 184.277344 144.617188 185.128906 146.992188 185.953125 C 148.65625 186.527344 150.269531 187.085938 151.589844 187.679688 C 152.484375 188.085938 152.878906 189.132812 152.476562 190.027344 C 152.175781 190.683594 151.535156 191.074219 150.855469 191.074219 Z M 150.855469 191.074219 " fill-opacity="1" fill-rule="nonzero"/><path fill="#a3a3cd" d="M 123.757812 162.800781 C 125.253906 167.859375 127.386719 172.503906 130.421875 176.511719 " fill-opacity="1" fill-rule="nonzero"/><path fill="#472b29" d="M 130.425781 178.28125 C 129.890625 178.28125 129.359375 178.039062 129.011719 177.582031 C 125.996094 173.601562 123.71875 168.933594 122.0625 163.304688 C 121.785156 162.367188 122.320312 161.378906 123.257812 161.105469 C 124.203125 160.839844 125.183594 161.363281 125.460938 162.300781 C 127 167.511719 129.082031 171.808594 131.835938 175.441406 C 132.425781 176.222656 132.273438 177.332031 131.492188 177.925781 C 131.171875 178.164062 130.796875 178.28125 130.425781 178.28125 Z M 130.425781 178.28125 " fill-opacity="1" fill-rule="nonzero"/><path fill="#a3a3cd" d="M 120.675781 127.03125 C 119.921875 135.949219 120.078125 144.828125 121.605469 153.582031 " fill-opacity="1" fill-rule="nonzero"/><path fill="#472b29" d="M 121.605469 155.359375 C 120.761719 155.359375 120.007812 154.753906 119.859375 153.890625 C 118.394531 145.507812 118.085938 136.671875 118.910156 126.886719 C 118.992188 125.914062 119.859375 125.257812 120.824219 125.269531 C 121.800781 125.351562 122.523438 126.210938 122.441406 127.183594 C 121.640625 136.664062 121.9375 145.199219 123.351562 153.28125 C 123.519531 154.242188 122.871094 155.164062 121.910156 155.332031 C 121.808594 155.351562 121.707031 155.359375 121.605469 155.359375 Z M 121.605469 155.359375 " fill-opacity="1" fill-rule="nonzero"/><path fill="#a3a3cd" d="M 254.226562 147.734375 C 255.601562 132.8125 255.105469 118.03125 250.929688 103.527344 " fill-opacity="1" fill-rule="nonzero"/><path fill="#472b29" d="M 254.226562 149.507812 C 254.171875 149.507812 254.117188 149.503906 254.0625 149.5 C 253.089844 149.410156 252.371094 148.546875 252.460938 147.574219 C 253.976562 131.097656 252.917969 116.84375 249.226562 104.015625 C 248.957031 103.074219 249.5 102.089844 250.4375 101.824219 C 251.375 101.539062 252.363281 102.09375 252.632812 103.035156 C 256.449219 116.296875 257.546875 130.972656 255.992188 147.898438 C 255.90625 148.820312 255.132812 149.507812 254.226562 149.507812 Z M 254.226562 149.507812 " fill-opacity="1" fill-rule="nonzero"/><path fill="#a3a3cd" d="M 247.253906 172.820312 C 249.738281 167.914062 251.511719 162.828125 252.691406 157.574219 " fill-opacity="1" fill-rule="nonzero"/><path fill="#472b29" d="M 247.253906 174.59375 C 246.984375 174.59375 246.714844 174.527344 246.453125 174.402344 C 245.582031 173.957031 245.230469 172.890625 245.675781 172.019531 C 248.007812 167.414062 249.785156 162.425781 250.960938 157.183594 C 251.179688 156.230469 252.128906 155.628906 253.078125 155.839844 C 254.035156 156.058594 254.632812 157.003906 254.417969 157.960938 C 253.175781 163.488281 251.300781 168.753906 248.832031 173.617188 C 248.523438 174.238281 247.898438 174.59375 247.253906 174.59375 Z M 247.253906 174.59375 " fill-opacity="1" fill-rule="nonzero"/><path fill="#ffffff" d="M 137.3125 107.632812 C 137.511719 98.546875 144.472656 93.441406 151.511719 91.890625 C 154.203125 91.296875 156.582031 92.246094 158.578125 94.152344 C 164.101562 99.421875 168.464844 105.53125 171.757812 112.386719 C 173.199219 115.390625 172.550781 118.054688 170.097656 120.289062 C 169.589844 120.753906 169.058594 121.1875 168.507812 121.601562 C 162.921875 125.808594 162.09375 128.988281 165.074219 135.3125 C 170.152344 146.085938 178.566406 153.3125 189.460938 157.800781 C 192.335938 158.984375 195.035156 158.398438 197.230469 156.070312 C 197.523438 155.757812 197.859375 155.460938 198.074219 155.101562 C 202.371094 147.9375 208.597656 148.648438 214.34375 152.734375 C 218.121094 155.417969 221.792969 158.246094 225.53125 160.988281 C 231.222656 165.164062 231.171875 169.097656 227.710938 174.753906 C 225.183594 178.882812 221.398438 181.746094 216.9375 183.609375 C 213.683594 184.96875 210.359375 184.683594 207.152344 183.320312 C 180.210938 171.925781 159.09375 153.960938 145.128906 128.136719 C 142.25 122.816406 140.25 117.027344 137.957031 111.40625 C 137.484375 110.253906 137.511719 108.894531 137.3125 107.632812 Z M 203.359375 133.59375 C 201.402344 133.59375 199.8125 132.011719 199.8125 130.050781 C 199.8125 123.480469 194.464844 118.132812 187.894531 118.132812 C 185.9375 118.132812 184.351562 116.546875 184.351562 114.589844 C 184.351562 112.628906 185.9375 111.042969 187.894531 111.042969 C 198.378906 111.042969 206.902344 119.570312 206.902344 130.050781 C 206.902344 132.011719 205.316406 133.59375 203.359375 133.59375 Z M 203.359375 133.59375 " fill-opacity="1" fill-rule="nonzero"/><path fill="#ffffff" d="M 218.136719 133.917969 C 217.941406 133.917969 217.742188 133.898438 217.546875 133.867188 C 215.617188 133.542969 214.3125 131.714844 214.644531 129.785156 C 214.851562 128.535156 214.957031 127.246094 214.957031 125.957031 C 214.957031 113.292969 204.65625 102.992188 191.992188 102.992188 C 190.703125 102.992188 189.414062 103.097656 188.160156 103.3125 C 186.230469 103.613281 184.402344 102.332031 184.078125 100.40625 C 183.757812 98.472656 185.054688 96.644531 186.984375 96.320312 C 188.621094 96.046875 190.308594 95.90625 191.992188 95.90625 C 208.566406 95.90625 222.046875 109.390625 222.046875 125.960938 C 222.046875 127.648438 221.90625 129.328125 221.628906 130.964844 C 221.335938 132.691406 219.839844 133.917969 218.136719 133.917969 Z M 218.136719 133.917969 " fill-opacity="1" fill-rule="nonzero"/><path fill="#ffffff" d="M 232.617188 134.242188 C 232.359375 134.242188 232.097656 134.214844 231.832031 134.160156 C 229.921875 133.726562 228.726562 131.828125 229.15625 129.917969 C 229.722656 127.417969 230.011719 124.839844 230.011719 122.265625 C 230.011719 103.289062 214.570312 87.851562 195.597656 87.851562 C 193.019531 87.851562 190.445312 88.140625 187.941406 88.703125 C 186.027344 89.125 184.136719 87.933594 183.703125 86.023438 C 183.269531 84.117188 184.472656 82.21875 186.378906 81.789062 C 189.394531 81.109375 192.496094 80.761719 195.597656 80.761719 C 218.480469 80.761719 237.097656 99.378906 237.097656 122.265625 C 237.097656 125.367188 236.75 128.46875 236.070312 131.484375 C 235.703125 133.125 234.238281 134.242188 232.617188 134.242188 Z M 232.617188 134.242188 " fill-opacity="1" fill-rule="nonzero"/><path fill="#472b29" d="M 189.359375 175.199219 C 189.203125 175.199219 189.046875 175.15625 188.902344 175.070312 C 169.84375 163.628906 154.851562 147.972656 144.351562 128.558594 C 142.171875 124.527344 140.46875 120.1875 138.824219 115.984375 C 138.269531 114.566406 137.710938 113.144531 137.136719 111.738281 C 136.765625 110.832031 136.667969 109.871094 136.574219 108.933594 C 136.535156 108.546875 136.496094 108.15625 136.433594 107.777344 C 136.636719 97.757812 144.257812 92.582031 151.316406 91.023438 C 154.113281 90.390625 156.835938 91.265625 159.183594 93.511719 C 164.683594 98.753906 169.175781 104.972656 172.550781 112 C 174.128906 115.296875 173.488281 118.390625 170.6875 120.9375 C 170.164062 121.421875 169.609375 121.871094 169.035156 122.304688 C 163.753906 126.277344 163.074219 128.996094 165.871094 134.929688 C 166.078125 135.375 165.886719 135.898438 165.445312 136.109375 C 165.003906 136.320312 164.472656 136.132812 164.265625 135.6875 C 161.097656 128.96875 162 125.375 167.964844 120.886719 C 168.492188 120.492188 169.003906 120.074219 169.488281 119.632812 C 171.710938 117.605469 172.1875 115.355469 170.945312 112.765625 C 167.667969 105.929688 163.296875 99.882812 157.957031 94.789062 C 156.023438 92.949219 153.914062 92.257812 151.691406 92.753906 C 145.285156 94.164062 138.375 98.820312 138.183594 107.652344 C 138.238281 107.902344 138.28125 108.328125 138.324219 108.757812 C 138.410156 109.597656 138.488281 110.398438 138.765625 111.066406 C 139.34375 112.484375 139.902344 113.910156 140.460938 115.335938 C 142.085938 119.484375 143.769531 123.777344 145.894531 127.710938 C 156.242188 146.84375 171.015625 162.265625 189.800781 173.554688 C 190.21875 173.800781 190.359375 174.351562 190.105469 174.769531 C 189.953125 175.046875 189.65625 175.199219 189.359375 175.199219 Z M 189.359375 175.199219 " fill-opacity="1" fill-rule="nonzero"/><path fill="#472b29" d="M 212.535156 185.378906 C 210.675781 185.378906 208.761719 184.964844 206.804688 184.136719 C 204.054688 182.972656 201.324219 181.71875 198.695312 180.414062 C 198.253906 180.199219 198.078125 179.667969 198.292969 179.226562 C 198.515625 178.789062 199.046875 178.617188 199.480469 178.832031 C 202.078125 180.117188 204.777344 181.355469 207.496094 182.503906 C 210.71875 183.871094 213.78125 183.960938 216.597656 182.785156 C 221.191406 180.867188 224.675781 178.003906 226.953125 174.285156 C 230.429688 168.601562 229.921875 165.3125 225.003906 161.695312 C 223.59375 160.660156 222.191406 159.613281 220.792969 158.566406 C 218.484375 156.84375 216.179688 155.117188 213.835938 153.453125 C 210.542969 151.109375 207.417969 150.175781 204.773438 150.710938 C 202.46875 151.199219 200.472656 152.824219 198.835938 155.554688 C 198.613281 155.921875 198.324219 156.21875 198.070312 156.480469 L 197.878906 156.675781 C 195.449219 159.253906 192.339844 159.9375 189.128906 158.621094 C 183.390625 156.253906 178.410156 153.152344 174.316406 149.402344 C 173.953125 149.066406 173.933594 148.507812 174.261719 148.148438 C 174.597656 147.785156 175.15625 147.769531 175.511719 148.089844 C 179.449219 151.703125 184.257812 154.6875 189.800781 156.976562 C 192.359375 158.03125 194.644531 157.515625 196.589844 155.453125 L 196.804688 155.230469 C 197.011719 155.023438 197.207031 154.828125 197.320312 154.636719 C 199.21875 151.46875 201.605469 149.5625 204.410156 148.972656 C 207.542969 148.320312 211.152344 149.367188 214.867188 152 C 217.222656 153.679688 219.539062 155.410156 221.859375 157.136719 C 223.257812 158.183594 224.65625 159.230469 226.0625 160.265625 C 231.726562 164.421875 232.421875 168.753906 228.476562 175.207031 C 225.996094 179.253906 222.234375 182.351562 217.285156 184.417969 C 215.75 185.0625 214.164062 185.378906 212.535156 185.378906 Z M 212.535156 185.378906 " fill-opacity="1" fill-rule="nonzero"/><path fill="#472b29" d="M 170.667969 145.136719 C 170.410156 145.136719 170.152344 145.027344 169.980469 144.808594 C 168.824219 143.390625 167.746094 141.871094 166.769531 140.300781 C 166.511719 139.886719 166.636719 139.339844 167.054688 139.078125 C 167.472656 138.828125 168.015625 138.953125 168.277344 139.363281 C 169.210938 140.875 170.246094 142.332031 171.355469 143.695312 C 171.664062 144.070312 171.605469 144.632812 171.226562 144.941406 C 171.066406 145.070312 170.867188 145.136719 170.667969 145.136719 Z M 170.667969 145.136719 " fill-opacity="1" fill-rule="nonzero"/><path fill="#472b29" d="M 203.359375 134.480469 C 200.917969 134.480469 198.929688 132.492188 198.929688 130.050781 C 198.929688 123.964844 193.980469 119.019531 187.894531 119.019531 C 185.453125 119.019531 183.464844 117.03125 183.464844 114.589844 C 183.464844 112.144531 185.453125 110.15625 187.894531 110.15625 C 189.285156 110.15625 190.675781 110.304688 192.023438 110.589844 C 192.503906 110.691406 192.8125 111.160156 192.707031 111.640625 C 192.609375 112.117188 192.132812 112.4375 191.660156 112.320312 C 190.429688 112.0625 189.164062 111.929688 187.894531 111.929688 C 186.429688 111.929688 185.238281 113.125 185.238281 114.589844 C 185.238281 116.050781 186.429688 117.246094 187.894531 117.246094 C 194.957031 117.246094 200.699219 122.992188 200.699219 130.050781 C 200.699219 131.515625 201.890625 132.707031 203.359375 132.707031 C 204.824219 132.707031 206.015625 131.515625 206.015625 130.050781 C 206.015625 123.488281 202.449219 117.421875 196.699219 114.214844 C 196.269531 113.976562 196.117188 113.4375 196.355469 113.007812 C 196.597656 112.574219 197.132812 112.421875 197.558594 112.664062 C 203.867188 116.183594 207.789062 122.847656 207.789062 130.046875 C 207.789062 132.492188 205.800781 134.480469 203.359375 134.480469 Z M 203.359375 134.480469 " fill-opacity="1" fill-rule="nonzero"/><path fill="#472b29" d="M 198.757812 97.554688 C 198.691406 97.554688 198.628906 97.546875 198.558594 97.53125 C 196.414062 97.035156 194.203125 96.785156 191.992188 96.785156 C 191.503906 96.785156 191.105469 96.390625 191.105469 95.898438 C 191.105469 95.410156 191.503906 95.015625 191.992188 95.015625 C 194.339844 95.015625 196.679688 95.28125 198.957031 95.808594 C 199.433594 95.914062 199.730469 96.394531 199.621094 96.871094 C 199.527344 97.277344 199.164062 97.554688 198.757812 97.554688 Z M 198.757812 97.554688 " fill-opacity="1" fill-rule="nonzero"/><path fill="#472b29" d="M 218.136719 134.804688 C 217.894531 134.804688 217.65625 134.78125 217.40625 134.742188 C 216.230469 134.542969 215.210938 133.90625 214.523438 132.9375 C 213.839844 131.976562 213.570312 130.796875 213.765625 129.632812 C 213.96875 128.425781 214.070312 127.191406 214.070312 125.953125 C 214.070312 113.777344 204.167969 103.875 191.992188 103.875 C 190.753906 103.875 189.511719 103.976562 188.308594 104.179688 C 185.875 104.578125 183.605469 102.925781 183.203125 100.550781 C 182.800781 98.136719 184.429688 95.851562 186.835938 95.445312 C 187.316406 95.367188 187.773438 95.683594 187.855469 96.167969 C 187.9375 96.65625 187.613281 97.113281 187.128906 97.191406 C 185.683594 97.433594 184.707031 98.808594 184.949219 100.257812 C 185.191406 101.679688 186.582031 102.664062 188.023438 102.433594 C 189.3125 102.210938 190.652344 102.101562 191.992188 102.101562 C 205.144531 102.101562 215.84375 112.804688 215.84375 125.953125 C 215.84375 127.289062 215.734375 128.625 215.515625 129.925781 C 215.394531 130.628906 215.558594 131.332031 215.96875 131.910156 C 216.378906 132.492188 216.992188 132.871094 217.691406 132.996094 C 219.0625 133.167969 220.507812 132.246094 220.753906 130.816406 C 221.023438 129.230469 221.15625 127.589844 221.15625 125.957031 C 221.15625 114.386719 214.296875 103.894531 203.675781 99.230469 C 203.226562 99.035156 203.023438 98.515625 203.21875 98.066406 C 203.417969 97.621094 203.941406 97.417969 204.390625 97.613281 C 215.652344 102.558594 222.929688 113.683594 222.929688 125.957031 C 222.929688 127.691406 222.785156 129.425781 222.5 131.109375 C 222.140625 133.246094 220.304688 134.804688 218.136719 134.804688 Z M 218.136719 134.804688 " fill-opacity="1" fill-rule="nonzero"/><path fill="#472b29" d="M 232.617188 135.128906 C 232.289062 135.128906 231.960938 135.09375 231.640625 135.023438 C 229.257812 134.484375 227.753906 132.105469 228.292969 129.726562 C 228.84375 127.285156 229.125 124.777344 229.125 122.265625 C 229.125 103.777344 214.082031 88.738281 195.597656 88.738281 C 193.085938 88.738281 190.578125 89.019531 188.136719 89.566406 C 185.746094 90.085938 183.375 88.585938 182.839844 86.222656 C 182.300781 83.839844 183.796875 81.460938 186.183594 80.921875 C 189.269531 80.230469 192.4375 79.878906 195.597656 79.878906 C 196.085938 79.878906 196.484375 80.273438 196.484375 80.761719 C 196.484375 81.253906 196.085938 81.648438 195.597656 81.648438 C 192.566406 81.648438 189.53125 81.984375 186.574219 82.652344 C 185.144531 82.976562 184.246094 84.398438 184.566406 85.828125 C 184.890625 87.246094 186.308594 88.125 187.75 87.832031 C 190.316406 87.257812 192.957031 86.960938 195.597656 86.960938 C 215.0625 86.960938 230.894531 102.796875 230.894531 122.261719 C 230.894531 124.902344 230.601562 127.546875 230.019531 130.109375 C 229.699219 131.539062 230.597656 132.972656 232.027344 133.289062 C 233.394531 133.605469 234.890625 132.671875 235.207031 131.285156 C 235.871094 128.332031 236.207031 125.296875 236.207031 122.261719 C 236.207031 107.660156 228.289062 94.101562 215.535156 86.886719 C 215.109375 86.648438 214.957031 86.105469 215.199219 85.679688 C 215.441406 85.246094 215.984375 85.101562 216.40625 85.34375 C 229.714844 92.878906 237.980469 107.023438 237.980469 122.261719 C 237.980469 125.429688 237.625 128.59375 236.929688 131.675781 C 236.476562 133.707031 234.699219 135.128906 232.617188 135.128906 Z M 232.617188 135.128906 " fill-opacity="1" fill-rule="nonzero"/><path fill="#472b29" d="M 210.351562 84.355469 C 210.246094 84.355469 210.136719 84.335938 210.035156 84.292969 C 207.597656 83.363281 205.054688 82.671875 202.488281 82.226562 C 202.003906 82.144531 201.683594 81.6875 201.761719 81.207031 C 201.84375 80.71875 202.296875 80.375 202.789062 80.484375 C 205.46875 80.945312 208.117188 81.667969 210.667969 82.636719 C 211.125 82.8125 211.355469 83.324219 211.179688 83.78125 C 211.046875 84.136719 210.707031 84.355469 210.351562 84.355469 Z M 210.351562 84.355469 " fill-opacity="1" fill-rule="nonzero"/><g fill="#000000" fill-opacity="1"><g transform="translate(44.318194, 355.878404)"><g><path d="M 40.234375 -56.6875 C 40.234375 -57.582031 39.976562 -58.351562 39.46875 -59 C 38.96875 -59.65625 38.332031 -60.207031 37.5625 -60.65625 C 36.789062 -61.101562 35.941406 -61.441406 35.015625 -61.671875 C 34.097656 -61.910156 33.222656 -62.09375 32.390625 -62.21875 C 34.523438 -62.03125 36.601562 -61.59375 38.625 -60.90625 C 40.644531 -60.226562 42.515625 -59.367188 44.234375 -58.328125 C 45.953125 -57.296875 47.476562 -56.125 48.8125 -54.8125 C 50.144531 -53.507812 51.257812 -52.175781 52.15625 -50.8125 C 52.75 -49.8125 53.207031 -48.820312 53.53125 -47.84375 C 53.851562 -46.863281 54.015625 -45.894531 54.015625 -44.9375 C 54.015625 -43.632812 53.765625 -42.40625 53.265625 -41.25 C 52.765625 -40.09375 52.082031 -39.082031 51.21875 -38.21875 C 50.351562 -37.363281 49.34375 -36.679688 48.1875 -36.171875 C 47.03125 -35.671875 45.800781 -35.421875 44.5 -35.421875 C 43.195312 -35.421875 41.96875 -35.671875 40.8125 -36.171875 C 39.65625 -36.679688 38.644531 -37.363281 37.78125 -38.21875 C 36.914062 -39.082031 36.234375 -40.09375 35.734375 -41.25 C 35.234375 -42.40625 34.984375 -43.632812 34.984375 -44.9375 C 34.984375 -46.425781 35.25 -47.660156 35.78125 -48.640625 C 36.3125 -49.617188 36.890625 -50.507812 37.515625 -51.3125 C 38.140625 -52.113281 38.734375 -52.910156 39.296875 -53.703125 C 39.859375 -54.503906 40.171875 -55.5 40.234375 -56.6875 Z M 40.3125 -8.1875 C 42.8125 -8.1875 45.273438 -8.734375 47.703125 -9.828125 C 50.140625 -10.929688 52.242188 -12.519531 54.015625 -14.59375 C 51.523438 -10.144531 48.203125 -6.597656 44.046875 -3.953125 C 39.898438 -1.316406 35.304688 0 30.265625 0 C 26.398438 0 22.757812 -0.8125 19.34375 -2.4375 C 15.9375 -4.070312 12.957031 -6.296875 10.40625 -9.109375 C 7.863281 -11.929688 5.863281 -15.238281 4.40625 -19.03125 C 2.945312 -22.832031 2.21875 -26.875 2.21875 -31.15625 C 2.21875 -35.425781 2.945312 -39.457031 4.40625 -43.25 C 5.863281 -47.050781 7.863281 -50.359375 10.40625 -53.171875 C 12.957031 -55.992188 15.9375 -58.21875 19.34375 -59.84375 C 22.757812 -61.476562 26.398438 -62.296875 30.265625 -62.296875 C 28.953125 -62.296875 27.65625 -61.628906 26.375 -60.296875 C 25.101562 -58.960938 23.945312 -57.179688 22.90625 -54.953125 C 21.875 -52.734375 21.046875 -50.125 20.421875 -47.125 C 19.796875 -44.125 19.484375 -40.992188 19.484375 -37.734375 C 19.484375 -33.640625 20.03125 -29.796875 21.125 -26.203125 C 22.226562 -22.617188 23.710938 -19.488281 25.578125 -16.8125 C 27.453125 -14.144531 29.664062 -12.039062 32.21875 -10.5 C 34.769531 -8.957031 37.46875 -8.1875 40.3125 -8.1875 Z M 40.3125 -8.1875 "/></g></g></g><g fill="#000000" fill-opacity="1"><g transform="translate(100.561209, 355.878404)"><g><path d="M 23.234375 -44.59375 C 25.960938 -44.46875 28.507812 -43.796875 30.875 -42.578125 C 33.25 -41.367188 35.328125 -39.753906 37.109375 -37.734375 C 38.890625 -35.710938 40.285156 -33.351562 41.296875 -30.65625 C 42.304688 -27.957031 42.8125 -25.097656 42.8125 -22.078125 C 42.8125 -19.046875 42.304688 -16.179688 41.296875 -13.484375 C 40.285156 -10.785156 38.890625 -8.425781 37.109375 -6.40625 C 35.328125 -4.382812 33.25 -2.765625 30.875 -1.546875 C 28.507812 -0.335938 25.960938 0.320312 23.234375 0.4375 C 25.242188 0.03125 26.769531 -2.082031 27.8125 -5.90625 C 28.851562 -9.738281 29.375 -15.128906 29.375 -22.078125 C 29.375 -29.015625 28.851562 -34.394531 27.8125 -38.21875 C 26.769531 -42.050781 25.242188 -44.175781 23.234375 -44.59375 Z M 21.71875 -44.59375 C 19.757812 -44.175781 18.242188 -42.050781 17.171875 -38.21875 C 16.109375 -34.394531 15.578125 -29.015625 15.578125 -22.078125 C 15.578125 -15.128906 16.109375 -9.738281 17.171875 -5.90625 C 18.242188 -2.082031 19.757812 0.03125 21.71875 0.4375 C 18.988281 0.320312 16.4375 -0.335938 14.0625 -1.546875 C 11.6875 -2.765625 9.625 -4.382812 7.875 -6.40625 C 6.125 -8.425781 4.742188 -10.785156 3.734375 -13.484375 C 2.722656 -16.179688 2.21875 -19.046875 2.21875 -22.078125 C 2.21875 -25.097656 2.722656 -27.957031 3.734375 -30.65625 C 4.742188 -33.351562 6.125 -35.710938 7.875 -37.734375 C 9.625 -39.753906 11.6875 -41.367188 14.0625 -42.578125 C 16.4375 -43.796875 18.988281 -44.46875 21.71875 -44.59375 Z M 21.71875 -44.59375 "/></g></g></g><g fill="#000000" fill-opacity="1"><g transform="translate(145.591224, 355.878404)"><g><path d="M 19.21875 -25.984375 L 19.21875 -4.890625 C 19.21875 -3.828125 19.570312 -2.789062 20.28125 -1.78125 C 21 -0.769531 21.863281 -0.175781 22.875 0 L 2.21875 0 C 3.226562 -0.175781 4.085938 -0.769531 4.796875 -1.78125 C 5.515625 -2.789062 5.875 -3.828125 5.875 -4.890625 L 5.875 -36.578125 C 5.875 -37.703125 5.515625 -38.753906 4.796875 -39.734375 C 4.085938 -40.710938 3.226562 -41.289062 2.21875 -41.46875 L 17.4375 -43.703125 L 17.71875 -43.703125 C 18.71875 -43.703125 19.21875 -43.195312 19.21875 -42.1875 Z M 42.625 -4.890625 C 42.625 -3.828125 42.976562 -2.789062 43.6875 -1.78125 C 44.40625 -0.769531 45.269531 -0.175781 46.28125 0 L 25.625 0 C 26.632812 -0.175781 27.492188 -0.769531 28.203125 -1.78125 C 28.921875 -2.789062 29.28125 -3.828125 29.28125 -4.890625 L 29.28125 -31.15625 C 29.28125 -32.28125 29.515625 -33.226562 29.984375 -34 C 30.460938 -34.769531 31 -35.46875 31.59375 -36.09375 C 32.1875 -36.71875 32.71875 -37.335938 33.1875 -37.953125 C 33.664062 -38.578125 33.90625 -39.304688 33.90625 -40.140625 C 33.90625 -41.148438 33.34375 -42.023438 32.21875 -42.765625 C 31.09375 -43.503906 29.640625 -43.875 27.859375 -43.875 C 25.960938 -43.875 24.269531 -43.632812 22.78125 -43.15625 C 21.300781 -42.6875 20.265625 -42.304688 19.671875 -42.015625 C 21.742188 -43.015625 24.097656 -43.765625 26.734375 -44.265625 C 29.378906 -44.773438 31.890625 -44.765625 34.265625 -44.234375 C 36.640625 -43.703125 38.625 -42.515625 40.21875 -40.671875 C 41.820312 -38.828125 42.625 -36.066406 42.625 -32.390625 Z M 42.625 -4.890625 "/></g></g></g><g fill="#000000" fill-opacity="1"><g transform="translate(194.091923, 355.878404)"><g><path d="M 19.3125 -38.625 L 19.3125 -8.015625 C 19.3125 -6.648438 19.769531 -5.503906 20.6875 -4.578125 C 21.613281 -3.660156 22.726562 -3.203125 24.03125 -3.203125 C 24.914062 -3.203125 25.742188 -3.441406 26.515625 -3.921875 C 25.984375 -3.503906 25.359375 -3.039062 24.640625 -2.53125 C 23.929688 -2.03125 23.132812 -1.554688 22.25 -1.109375 C 21.363281 -0.660156 20.382812 -0.289062 19.3125 0 C 18.25 0.289062 17.09375 0.4375 15.84375 0.4375 C 14.476562 0.4375 13.1875 0.171875 11.96875 -0.359375 C 10.75 -0.890625 9.691406 -1.613281 8.796875 -2.53125 C 7.910156 -3.457031 7.203125 -4.523438 6.671875 -5.734375 C 6.140625 -6.953125 5.875 -8.242188 5.875 -9.609375 L 5.875 -38.890625 C 5.875 -39.960938 5.53125 -40.988281 4.84375 -41.96875 C 4.164062 -42.945312 3.289062 -43.550781 2.21875 -43.78125 C 5.601562 -44.019531 8.75 -44.835938 11.65625 -46.234375 C 14.5625 -47.628906 17.113281 -49.453125 19.3125 -51.703125 L 19.3125 -43.78125 L 22.875 -43.78125 C 21.863281 -43.550781 21.015625 -42.945312 20.328125 -41.96875 C 19.648438 -40.988281 19.3125 -39.960938 19.3125 -38.890625 Z M 19.3125 -38.625 "/></g></g></g><g fill="#000000" fill-opacity="1"><g transform="translate(223.014357, 355.878404)"><g><path d="M 11.84375 -25.015625 C 9.9375 -25.015625 8.316406 -25.679688 6.984375 -27.015625 C 5.648438 -28.347656 4.984375 -29.960938 4.984375 -31.859375 C 4.984375 -33.347656 5.425781 -34.800781 6.3125 -36.21875 C 7.207031 -37.644531 8.363281 -38.921875 9.78125 -40.046875 C 11.207031 -41.171875 12.8125 -42.117188 14.59375 -42.890625 C 16.375 -43.671875 18.15625 -44.148438 19.9375 -44.328125 C 18.332031 -44.085938 17.097656 -43.609375 16.234375 -42.890625 C 15.378906 -42.179688 14.953125 -41.351562 14.953125 -40.40625 C 14.953125 -39.75 15.128906 -39.109375 15.484375 -38.484375 C 15.835938 -37.867188 16.285156 -37.234375 16.828125 -36.578125 C 18.128906 -35.390625 18.78125 -33.816406 18.78125 -31.859375 C 18.78125 -29.960938 18.097656 -28.347656 16.734375 -27.015625 C 15.367188 -25.679688 13.738281 -25.015625 11.84375 -25.015625 Z M 38.71875 -6.671875 C 38.71875 -5.609375 39.070312 -4.570312 39.78125 -3.5625 C 40.488281 -2.550781 41.347656 -1.957031 42.359375 -1.78125 L 27.0625 0.4375 L 26.875 0.4375 C 26.40625 0.4375 26.019531 0.289062 25.71875 0 C 25.425781 -0.289062 25.28125 -0.675781 25.28125 -1.15625 L 25.28125 -26.875 C 24.5625 -26.519531 23.679688 -26.070312 22.640625 -25.53125 C 21.609375 -25 20.601562 -24.289062 19.625 -23.40625 C 18.644531 -22.519531 17.785156 -21.394531 17.046875 -20.03125 C 16.304688 -18.664062 15.84375 -16.941406 15.65625 -14.859375 C 15.476562 -12.722656 15.640625 -10.835938 16.140625 -9.203125 C 16.648438 -7.578125 17.378906 -6.257812 18.328125 -5.25 C 19.285156 -4.238281 20.414062 -3.523438 21.71875 -3.109375 C 23.019531 -2.691406 24.144531 -2.722656 25.09375 -3.203125 C 24.03125 -2.429688 22.609375 -1.628906 20.828125 -0.796875 C 19.046875 0.0234375 16.9375 0.4375 14.5 0.4375 C 11.71875 0.4375 9.195312 -0.300781 6.9375 -1.78125 C 4.6875 -3.257812 3.234375 -5.25 2.578125 -7.75 C 1.867188 -10.289062 2.117188 -12.765625 3.328125 -15.171875 C 4.546875 -17.578125 6.40625 -19.550781 8.90625 -21.09375 C 10.207031 -21.863281 11.789062 -22.617188 13.65625 -23.359375 C 15.53125 -24.097656 17.519531 -24.820312 19.625 -25.53125 C 21.726562 -26.25 23.816406 -26.960938 25.890625 -27.671875 C 27.972656 -28.390625 29.859375 -29.160156 31.546875 -29.984375 C 33.242188 -30.816406 34.640625 -31.707031 35.734375 -32.65625 C 36.828125 -33.613281 37.40625 -34.679688 37.46875 -35.859375 C 37.53125 -36.578125 37.394531 -37.335938 37.0625 -38.140625 C 36.738281 -38.941406 36.28125 -39.664062 35.6875 -40.3125 C 37.289062 -38.769531 38.269531 -36.992188 38.625 -34.984375 C 38.6875 -34.742188 38.71875 -34.503906 38.71875 -34.265625 C 38.71875 -34.023438 38.71875 -33.785156 38.71875 -33.546875 Z M 38.71875 -6.671875 "/></g></g></g><g fill="#000000" fill-opacity="1"><g transform="translate(267.599415, 355.878404)"><g><path d="M 22.515625 -44.59375 C 21.921875 -44.46875 21.222656 -43.914062 20.421875 -42.9375 C 19.617188 -41.957031 18.863281 -40.664062 18.15625 -39.0625 C 17.445312 -37.46875 16.835938 -35.613281 16.328125 -33.5 C 15.828125 -31.394531 15.578125 -29.15625 15.578125 -26.78125 C 15.578125 -23.820312 15.960938 -21.035156 16.734375 -18.421875 C 17.503906 -15.804688 18.554688 -13.519531 19.890625 -11.5625 C 21.222656 -9.613281 22.78125 -8.070312 24.5625 -6.9375 C 26.34375 -5.8125 28.242188 -5.25 30.265625 -5.25 C 31.984375 -5.25 33.671875 -5.675781 35.328125 -6.53125 C 36.992188 -7.394531 38.445312 -8.597656 39.6875 -10.140625 C 37.914062 -6.941406 35.515625 -4.378906 32.484375 -2.453125 C 29.460938 -0.523438 26.140625 0.4375 22.515625 0.4375 C 19.722656 0.4375 17.097656 -0.148438 14.640625 -1.328125 C 12.179688 -2.515625 10.03125 -4.117188 8.1875 -6.140625 C 6.34375 -8.160156 4.882812 -10.535156 3.8125 -13.265625 C 2.75 -15.992188 2.21875 -18.929688 2.21875 -22.078125 C 2.21875 -25.160156 2.75 -28.082031 3.8125 -30.84375 C 4.882812 -33.601562 6.34375 -35.988281 8.1875 -38 C 10.03125 -40.019531 12.179688 -41.625 14.640625 -42.8125 C 17.097656 -44 19.722656 -44.59375 22.515625 -44.59375 Z M 24.03125 -44.59375 C 26.164062 -44.414062 28.179688 -43.910156 30.078125 -43.078125 C 31.984375 -42.242188 33.644531 -41.234375 35.0625 -40.046875 C 36.488281 -38.859375 37.613281 -37.550781 38.4375 -36.125 C 39.269531 -34.707031 39.6875 -33.347656 39.6875 -32.046875 C 39.6875 -30.140625 39.003906 -28.519531 37.640625 -27.1875 C 36.273438 -25.851562 34.644531 -25.1875 32.75 -25.1875 C 30.851562 -25.1875 29.238281 -25.851562 27.90625 -27.1875 C 26.570312 -28.519531 25.90625 -30.140625 25.90625 -32.046875 C 25.90625 -33.878906 26.523438 -35.476562 27.765625 -36.84375 C 28.359375 -37.4375 28.832031 -38.046875 29.1875 -38.671875 C 29.539062 -39.296875 29.71875 -39.929688 29.71875 -40.578125 C 29.71875 -41.171875 29.539062 -41.71875 29.1875 -42.21875 C 28.832031 -42.726562 28.375 -43.144531 27.8125 -43.46875 C 27.25 -43.800781 26.625 -44.054688 25.9375 -44.234375 C 25.257812 -44.410156 24.625 -44.53125 24.03125 -44.59375 Z M 24.03125 -44.59375 "/></g></g></g><g fill="#000000" fill-opacity="1"><g transform="translate(309.514702, 355.878404)"><g><path d="M 19.3125 -38.625 L 19.3125 -8.015625 C 19.3125 -6.648438 19.769531 -5.503906 20.6875 -4.578125 C 21.613281 -3.660156 22.726562 -3.203125 24.03125 -3.203125 C 24.914062 -3.203125 25.742188 -3.441406 26.515625 -3.921875 C 25.984375 -3.503906 25.359375 -3.039062 24.640625 -2.53125 C 23.929688 -2.03125 23.132812 -1.554688 22.25 -1.109375 C 21.363281 -0.660156 20.382812 -0.289062 19.3125 0 C 18.25 0.289062 17.09375 0.4375 15.84375 0.4375 C 14.476562 0.4375 13.1875 0.171875 11.96875 -0.359375 C 10.75 -0.890625 9.691406 -1.613281 8.796875 -2.53125 C 7.910156 -3.457031 7.203125 -4.523438 6.671875 -5.734375 C 6.140625 -6.953125 5.875 -8.242188 5.875 -9.609375 L 5.875 -38.890625 C 5.875 -39.960938 5.53125 -40.988281 4.84375 -41.96875 C 4.164062 -42.945312 3.289062 -43.550781 2.21875 -43.78125 C 5.601562 -44.019531 8.75 -44.835938 11.65625 -46.234375 C 14.5625 -47.628906 17.113281 -49.453125 19.3125 -51.703125 L 19.3125 -43.78125 L 22.875 -43.78125 C 21.863281 -43.550781 21.015625 -42.945312 20.328125 -41.96875 C 19.648438 -40.988281 19.3125 -39.960938 19.3125 -38.890625 Z M 19.3125 -38.625 "/></g></g></g><g fill="#ffffff" fill-opacity="1"><g transform="translate(40.433917, 356.150017)"><g><path d="M 40.234375 -56.6875 C 40.234375 -57.582031 39.976562 -58.351562 39.46875 -59 C 38.96875 -59.65625 38.332031 -60.207031 37.5625 -60.65625 C 36.789062 -61.101562 35.941406 -61.441406 35.015625 -61.671875 C 34.097656 -61.910156 33.222656 -62.09375 32.390625 -62.21875 C 34.523438 -62.03125 36.601562 -61.59375 38.625 -60.90625 C 40.644531 -60.226562 42.515625 -59.367188 44.234375 -58.328125 C 45.953125 -57.296875 47.476562 -56.125 48.8125 -54.8125 C 50.144531 -53.507812 51.257812 -52.175781 52.15625 -50.8125 C 52.75 -49.8125 53.207031 -48.820312 53.53125 -47.84375 C 53.851562 -46.863281 54.015625 -45.894531 54.015625 -44.9375 C 54.015625 -43.632812 53.765625 -42.40625 53.265625 -41.25 C 52.765625 -40.09375 52.082031 -39.082031 51.21875 -38.21875 C 50.351562 -37.363281 49.34375 -36.679688 48.1875 -36.171875 C 47.03125 -35.671875 45.800781 -35.421875 44.5 -35.421875 C 43.195312 -35.421875 41.96875 -35.671875 40.8125 -36.171875 C 39.65625 -36.679688 38.644531 -37.363281 37.78125 -38.21875 C 36.914062 -39.082031 36.234375 -40.09375 35.734375 -41.25 C 35.234375 -42.40625 34.984375 -43.632812 34.984375 -44.9375 C 34.984375 -46.425781 35.25 -47.660156 35.78125 -48.640625 C 36.3125 -49.617188 36.890625 -50.507812 37.515625 -51.3125 C 38.140625 -52.113281 38.734375 -52.910156 39.296875 -53.703125 C 39.859375 -54.503906 40.171875 -55.5 40.234375 -56.6875 Z M 40.3125 -8.1875 C 42.8125 -8.1875 45.273438 -8.734375 47.703125 -9.828125 C 50.140625 -10.929688 52.242188 -12.519531 54.015625 -14.59375 C 51.523438 -10.144531 48.203125 -6.597656 44.046875 -3.953125 C 39.898438 -1.316406 35.304688 0 30.265625 0 C 26.398438 0 22.757812 -0.8125 19.34375 -2.4375 C 15.9375 -4.070312 12.957031 -6.296875 10.40625 -9.109375 C 7.863281 -11.929688 5.863281 -15.238281 4.40625 -19.03125 C 2.945312 -22.832031 2.21875 -26.875 2.21875 -31.15625 C 2.21875 -35.425781 2.945312 -39.457031 4.40625 -43.25 C 5.863281 -47.050781 7.863281 -50.359375 10.40625 -53.171875 C 12.957031 -55.992188 15.9375 -58.21875 19.34375 -59.84375 C 22.757812 -61.476562 26.398438 -62.296875 30.265625 -62.296875 C 28.953125 -62.296875 27.65625 -61.628906 26.375 -60.296875 C 25.101562 -58.960938 23.945312 -57.179688 22.90625 -54.953125 C 21.875 -52.734375 21.046875 -50.125 20.421875 -47.125 C 19.796875 -44.125 19.484375 -40.992188 19.484375 -37.734375 C 19.484375 -33.640625 20.03125 -29.796875 21.125 -26.203125 C 22.226562 -22.617188 23.710938 -19.488281 25.578125 -16.8125 C 27.453125 -14.144531 29.664062 -12.039062 32.21875 -10.5 C 34.769531 -8.957031 37.46875 -8.1875 40.3125 -8.1875 Z M 40.3125 -8.1875 "/></g></g></g><g fill="#ffffff" fill-opacity="1"><g transform="translate(96.676933, 356.150017)"><g><path d="M 23.234375 -44.59375 C 25.960938 -44.46875 28.507812 -43.796875 30.875 -42.578125 C 33.25 -41.367188 35.328125 -39.753906 37.109375 -37.734375 C 38.890625 -35.710938 40.285156 -33.351562 41.296875 -30.65625 C 42.304688 -27.957031 42.8125 -25.097656 42.8125 -22.078125 C 42.8125 -19.046875 42.304688 -16.179688 41.296875 -13.484375 C 40.285156 -10.785156 38.890625 -8.425781 37.109375 -6.40625 C 35.328125 -4.382812 33.25 -2.765625 30.875 -1.546875 C 28.507812 -0.335938 25.960938 0.320312 23.234375 0.4375 C 25.242188 0.03125 26.769531 -2.082031 27.8125 -5.90625 C 28.851562 -9.738281 29.375 -15.128906 29.375 -22.078125 C 29.375 -29.015625 28.851562 -34.394531 27.8125 -38.21875 C 26.769531 -42.050781 25.242188 -44.175781 23.234375 -44.59375 Z M 21.71875 -44.59375 C 19.757812 -44.175781 18.242188 -42.050781 17.171875 -38.21875 C 16.109375 -34.394531 15.578125 -29.015625 15.578125 -22.078125 C 15.578125 -15.128906 16.109375 -9.738281 17.171875 -5.90625 C 18.242188 -2.082031 19.757812 0.03125 21.71875 0.4375 C 18.988281 0.320312 16.4375 -0.335938 14.0625 -1.546875 C 11.6875 -2.765625 9.625 -4.382812 7.875 -6.40625 C 6.125 -8.425781 4.742188 -10.785156 3.734375 -13.484375 C 2.722656 -16.179688 2.21875 -19.046875 2.21875 -22.078125 C 2.21875 -25.097656 2.722656 -27.957031 3.734375 -30.65625 C 4.742188 -33.351562 6.125 -35.710938 7.875 -37.734375 C 9.625 -39.753906 11.6875 -41.367188 14.0625 -42.578125 C 16.4375 -43.796875 18.988281 -44.46875 21.71875 -44.59375 Z M 21.71875 -44.59375 "/></g></g></g><g fill="#ffffff" fill-opacity="1"><g transform="translate(141.706948, 356.150017)"><g><path d="M 19.21875 -25.984375 L 19.21875 -4.890625 C 19.21875 -3.828125 19.570312 -2.789062 20.28125 -1.78125 C 21 -0.769531 21.863281 -0.175781 22.875 0 L 2.21875 0 C 3.226562 -0.175781 4.085938 -0.769531 4.796875 -1.78125 C 5.515625 -2.789062 5.875 -3.828125 5.875 -4.890625 L 5.875 -36.578125 C 5.875 -37.703125 5.515625 -38.753906 4.796875 -39.734375 C 4.085938 -40.710938 3.226562 -41.289062 2.21875 -41.46875 L 17.4375 -43.703125 L 17.71875 -43.703125 C 18.71875 -43.703125 19.21875 -43.195312 19.21875 -42.1875 Z M 42.625 -4.890625 C 42.625 -3.828125 42.976562 -2.789062 43.6875 -1.78125 C 44.40625 -0.769531 45.269531 -0.175781 46.28125 0 L 25.625 0 C 26.632812 -0.175781 27.492188 -0.769531 28.203125 -1.78125 C 28.921875 -2.789062 29.28125 -3.828125 29.28125 -4.890625 L 29.28125 -31.15625 C 29.28125 -32.28125 29.515625 -33.226562 29.984375 -34 C 30.460938 -34.769531 31 -35.46875 31.59375 -36.09375 C 32.1875 -36.71875 32.71875 -37.335938 33.1875 -37.953125 C 33.664062 -38.578125 33.90625 -39.304688 33.90625 -40.140625 C 33.90625 -41.148438 33.34375 -42.023438 32.21875 -42.765625 C 31.09375 -43.503906 29.640625 -43.875 27.859375 -43.875 C 25.960938 -43.875 24.269531 -43.632812 22.78125 -43.15625 C 21.300781 -42.6875 20.265625 -42.304688 19.671875 -42.015625 C 21.742188 -43.015625 24.097656 -43.765625 26.734375 -44.265625 C 29.378906 -44.773438 31.890625 -44.765625 34.265625 -44.234375 C 36.640625 -43.703125 38.625 -42.515625 40.21875 -40.671875 C 41.820312 -38.828125 42.625 -36.066406 42.625 -32.390625 Z M 42.625 -4.890625 "/></g></g></g><g fill="#ffffff" fill-opacity="1"><g transform="translate(190.207647, 356.150017)"><g><path d="M 19.3125 -38.625 L 19.3125 -8.015625 C 19.3125 -6.648438 19.769531 -5.503906 20.6875 -4.578125 C 21.613281 -3.660156 22.726562 -3.203125 24.03125 -3.203125 C 24.914062 -3.203125 25.742188 -3.441406 26.515625 -3.921875 C 25.984375 -3.503906 25.359375 -3.039062 24.640625 -2.53125 C 23.929688 -2.03125 23.132812 -1.554688 22.25 -1.109375 C 21.363281 -0.660156 20.382812 -0.289062 19.3125 0 C 18.25 0.289062 17.09375 0.4375 15.84375 0.4375 C 14.476562 0.4375 13.1875 0.171875 11.96875 -0.359375 C 10.75 -0.890625 9.691406 -1.613281 8.796875 -2.53125 C 7.910156 -3.457031 7.203125 -4.523438 6.671875 -5.734375 C 6.140625 -6.953125 5.875 -8.242188 5.875 -9.609375 L 5.875 -38.890625 C 5.875 -39.960938 5.53125 -40.988281 4.84375 -41.96875 C 4.164062 -42.945312 3.289062 -43.550781 2.21875 -43.78125 C 5.601562 -44.019531 8.75 -44.835938 11.65625 -46.234375 C 14.5625 -47.628906 17.113281 -49.453125 19.3125 -51.703125 L 19.3125 -43.78125 L 22.875 -43.78125 C 21.863281 -43.550781 21.015625 -42.945312 20.328125 -41.96875 C 19.648438 -40.988281 19.3125 -39.960938 19.3125 -38.890625 Z M 19.3125 -38.625 "/></g></g></g><g fill="#ffffff" fill-opacity="1"><g transform="translate(219.130081, 356.150017)"><g><path d="M 11.84375 -25.015625 C 9.9375 -25.015625 8.316406 -25.679688 6.984375 -27.015625 C 5.648438 -28.347656 4.984375 -29.960938 4.984375 -31.859375 C 4.984375 -33.347656 5.425781 -34.800781 6.3125 -36.21875 C 7.207031 -37.644531 8.363281 -38.921875 9.78125 -40.046875 C 11.207031 -41.171875 12.8125 -42.117188 14.59375 -42.890625 C 16.375 -43.671875 18.15625 -44.148438 19.9375 -44.328125 C 18.332031 -44.085938 17.097656 -43.609375 16.234375 -42.890625 C 15.378906 -42.179688 14.953125 -41.351562 14.953125 -40.40625 C 14.953125 -39.75 15.128906 -39.109375 15.484375 -38.484375 C 15.835938 -37.867188 16.285156 -37.234375 16.828125 -36.578125 C 18.128906 -35.390625 18.78125 -33.816406 18.78125 -31.859375 C 18.78125 -29.960938 18.097656 -28.347656 16.734375 -27.015625 C 15.367188 -25.679688 13.738281 -25.015625 11.84375 -25.015625 Z M 38.71875 -6.671875 C 38.71875 -5.609375 39.070312 -4.570312 39.78125 -3.5625 C 40.488281 -2.550781 41.347656 -1.957031 42.359375 -1.78125 L 27.0625 0.4375 L 26.875 0.4375 C 26.40625 0.4375 26.019531 0.289062 25.71875 0 C 25.425781 -0.289062 25.28125 -0.675781 25.28125 -1.15625 L 25.28125 -26.875 C 24.5625 -26.519531 23.679688 -26.070312 22.640625 -25.53125 C 21.609375 -25 20.601562 -24.289062 19.625 -23.40625 C 18.644531 -22.519531 17.785156 -21.394531 17.046875 -20.03125 C 16.304688 -18.664062 15.84375 -16.941406 15.65625 -14.859375 C 15.476562 -12.722656 15.640625 -10.835938 16.140625 -9.203125 C 16.648438 -7.578125 17.378906 -6.257812 18.328125 -5.25 C 19.285156 -4.238281 20.414062 -3.523438 21.71875 -3.109375 C 23.019531 -2.691406 24.144531 -2.722656 25.09375 -3.203125 C 24.03125 -2.429688 22.609375 -1.628906 20.828125 -0.796875 C 19.046875 0.0234375 16.9375 0.4375 14.5 0.4375 C 11.71875 0.4375 9.195312 -0.300781 6.9375 -1.78125 C 4.6875 -3.257812 3.234375 -5.25 2.578125 -7.75 C 1.867188 -10.289062 2.117188 -12.765625 3.328125 -15.171875 C 4.546875 -17.578125 6.40625 -19.550781 8.90625 -21.09375 C 10.207031 -21.863281 11.789062 -22.617188 13.65625 -23.359375 C 15.53125 -24.097656 17.519531 -24.820312 19.625 -25.53125 C 21.726562 -26.25 23.816406 -26.960938 25.890625 -27.671875 C 27.972656 -28.390625 29.859375 -29.160156 31.546875 -29.984375 C 33.242188 -30.816406 34.640625 -31.707031 35.734375 -32.65625 C 36.828125 -33.613281 37.40625 -34.679688 37.46875 -35.859375 C 37.53125 -36.578125 37.394531 -37.335938 37.0625 -38.140625 C 36.738281 -38.941406 36.28125 -39.664062 35.6875 -40.3125 C 37.289062 -38.769531 38.269531 -36.992188 38.625 -34.984375 C 38.6875 -34.742188 38.71875 -34.503906 38.71875 -34.265625 C 38.71875 -34.023438 38.71875 -33.785156 38.71875 -33.546875 Z M 38.71875 -6.671875 "/></g></g></g><g fill="#ffffff" fill-opacity="1"><g transform="translate(263.715138, 356.150017)"><g><path d="M 22.515625 -44.59375 C 21.921875 -44.46875 21.222656 -43.914062 20.421875 -42.9375 C 19.617188 -41.957031 18.863281 -40.664062 18.15625 -39.0625 C 17.445312 -37.46875 16.835938 -35.613281 16.328125 -33.5 C 15.828125 -31.394531 15.578125 -29.15625 15.578125 -26.78125 C 15.578125 -23.820312 15.960938 -21.035156 16.734375 -18.421875 C 17.503906 -15.804688 18.554688 -13.519531 19.890625 -11.5625 C 21.222656 -9.613281 22.78125 -8.070312 24.5625 -6.9375 C 26.34375 -5.8125 28.242188 -5.25 30.265625 -5.25 C 31.984375 -5.25 33.671875 -5.675781 35.328125 -6.53125 C 36.992188 -7.394531 38.445312 -8.597656 39.6875 -10.140625 C 37.914062 -6.941406 35.515625 -4.378906 32.484375 -2.453125 C 29.460938 -0.523438 26.140625 0.4375 22.515625 0.4375 C 19.722656 0.4375 17.097656 -0.148438 14.640625 -1.328125 C 12.179688 -2.515625 10.03125 -4.117188 8.1875 -6.140625 C 6.34375 -8.160156 4.882812 -10.535156 3.8125 -13.265625 C 2.75 -15.992188 2.21875 -18.929688 2.21875 -22.078125 C 2.21875 -25.160156 2.75 -28.082031 3.8125 -30.84375 C 4.882812 -33.601562 6.34375 -35.988281 8.1875 -38 C 10.03125 -40.019531 12.179688 -41.625 14.640625 -42.8125 C 17.097656 -44 19.722656 -44.59375 22.515625 -44.59375 Z M 24.03125 -44.59375 C 26.164062 -44.414062 28.179688 -43.910156 30.078125 -43.078125 C 31.984375 -42.242188 33.644531 -41.234375 35.0625 -40.046875 C 36.488281 -38.859375 37.613281 -37.550781 38.4375 -36.125 C 39.269531 -34.707031 39.6875 -33.347656 39.6875 -32.046875 C 39.6875 -30.140625 39.003906 -28.519531 37.640625 -27.1875 C 36.273438 -25.851562 34.644531 -25.1875 32.75 -25.1875 C 30.851562 -25.1875 29.238281 -25.851562 27.90625 -27.1875 C 26.570312 -28.519531 25.90625 -30.140625 25.90625 -32.046875 C 25.90625 -33.878906 26.523438 -35.476562 27.765625 -36.84375 C 28.359375 -37.4375 28.832031 -38.046875 29.1875 -38.671875 C 29.539062 -39.296875 29.71875 -39.929688 29.71875 -40.578125 C 29.71875 -41.171875 29.539062 -41.71875 29.1875 -42.21875 C 28.832031 -42.726562 28.375 -43.144531 27.8125 -43.46875 C 27.25 -43.800781 26.625 -44.054688 25.9375 -44.234375 C 25.257812 -44.410156 24.625 -44.53125 24.03125 -44.59375 Z M 24.03125 -44.59375 "/></g></g></g><g fill="#ffffff" fill-opacity="1"><g transform="translate(305.630426, 356.150017)"><g><path d="M 19.3125 -38.625 L 19.3125 -8.015625 C 19.3125 -6.648438 19.769531 -5.503906 20.6875 -4.578125 C 21.613281 -3.660156 22.726562 -3.203125 24.03125 -3.203125 C 24.914062 -3.203125 25.742188 -3.441406 26.515625 -3.921875 C 25.984375 -3.503906 25.359375 -3.039062 24.640625 -2.53125 C 23.929688 -2.03125 23.132812 -1.554688 22.25 -1.109375 C 21.363281 -0.660156 20.382812 -0.289062 19.3125 0 C 18.25 0.289062 17.09375 0.4375 15.84375 0.4375 C 14.476562 0.4375 13.1875 0.171875 11.96875 -0.359375 C 10.75 -0.890625 9.691406 -1.613281 8.796875 -2.53125 C 7.910156 -3.457031 7.203125 -4.523438 6.671875 -5.734375 C 6.140625 -6.953125 5.875 -8.242188 5.875 -9.609375 L 5.875 -38.890625 C 5.875 -39.960938 5.53125 -40.988281 4.84375 -41.96875 C 4.164062 -42.945312 3.289062 -43.550781 2.21875 -43.78125 C 5.601562 -44.019531 8.75 -44.835938 11.65625 -46.234375 C 14.5625 -47.628906 17.113281 -49.453125 19.3125 -51.703125 L 19.3125 -43.78125 L 22.875 -43.78125 C 21.863281 -43.550781 21.015625 -42.945312 20.328125 -41.96875 C 19.648438 -40.988281 19.3125 -39.960938 19.3125 -38.890625 Z M 19.3125 -38.625 "/></g></g></g></svg>